<svg width="26" height="27" viewBox="0 0 26 27" fill="none" xmlns="http://www.w3.org/2000/svg">
<path fill-rule="evenodd" clip-rule="evenodd" d="M14.9624 0.0364905C14.6059 0.184431 14.3493 0.85563 14.2789 1.82478C14.229 2.51072 14.051 4.44511 14.0359 4.46422C14.0272 4.47533 13.8902 4.44137 13.7315 4.38864C13.3427 4.25952 13.1926 4.33142 13.2178 4.63478C13.2349 4.84069 13.2468 4.85088 13.6213 4.9823L14.0072 5.11769L13.9784 5.50038C13.9625 5.71083 13.9366 5.991 13.9207 6.12288L13.8919 6.36275L13.3334 6.46159C12.7177 6.57056 12.631 6.61281 12.631 6.8041C12.631 7.03199 12.7596 7.08052 13.2496 7.03758C13.4951 7.01599 13.7413 6.98531 13.7967 6.96931C13.8847 6.94392 13.8971 6.98278 13.8946 7.27515C13.893 7.45929 13.858 8.00587 13.8168 8.48969C13.7454 9.32812 13.7338 9.37947 13.5698 9.58342C13.188 10.0585 12.6445 10.3792 10.9617 11.1225C8.36954 12.2674 7.13922 13.0108 6.06737 14.0796C4.80188 15.3416 3.8569 17.3994 3.49511 19.681C3.37739 20.4236 3.36202 22.5631 3.46938 23.2653C3.50305 23.4857 3.51848 23.6782 3.50363 23.6931C3.43927 23.7574 3.07391 23.3133 2.90329 22.9634C2.2063 21.5339 2.14741 18.9065 2.75788 16.4749C3.48337 13.5854 5.35806 10.6351 8.05841 8.1332C9.7493 6.56653 10.2378 5.85377 10.127 5.11476C10.0756 4.77225 10.0222 4.67122 9.73358 4.37143C9.39355 4.01827 9.02917 3.8971 8.30731 3.8971C7.64884 3.8971 7.12477 4.03951 6.47493 4.39503C4.67691 5.37863 3.12946 7.2946 1.80951 10.1716C0.0873616 13.9251 -0.4321 18.0851 0.365511 21.7358C0.513739 22.4141 0.674401 22.8768 0.999237 23.5607C1.53752 24.694 2.32679 25.6485 3.18455 26.2034C3.71259 26.545 3.88638 26.615 4.54082 26.7496C5.71652 26.9916 6.30805 27.0096 12.6598 26.9971C21.9009 26.9789 24.898 26.8929 25.2062 26.6372C25.2485 26.6021 25.2958 26.4772 25.3114 26.3596C25.3685 25.9284 25.2085 24.1741 25.011 23.066C24.98 22.8919 24.7987 21.1822 24.6082 19.2668C24.1039 14.1957 23.8987 11.805 23.771 9.50962C23.6233 6.85544 23.6264 7.05594 23.7328 7.08633C23.9212 7.1401 25.0988 7.2459 25.2952 7.22673C25.4764 7.209 25.4985 7.18793 25.515 7.01622C25.5411 6.7436 25.4595 6.68097 25.0212 6.6375C24.8078 6.61632 24.4066 6.57056 24.1295 6.53573L23.6258 6.47241V5.99935V5.52623L24.7051 5.09685C25.7159 4.69477 25.7856 4.65741 25.803 4.50906C25.827 4.3046 25.7247 4.18492 25.5259 4.18492C25.439 4.18492 25.0083 4.32733 24.5688 4.50135C24.1293 4.67537 23.7339 4.81784 23.6902 4.81795C23.6233 4.81813 23.6187 4.6003 23.6614 3.45097C23.7607 0.775098 23.7303 0.41486 23.3903 0.239059C23.1491 0.114317 22.9616 0.137055 22.774 0.31372C22.5662 0.509381 21.6604 1.55567 20.8463 2.54036C20.7325 2.67806 20.6443 2.71709 20.3674 2.75237C19.5332 2.85864 19.1561 2.87326 18.2655 2.834L17.315 2.79204L16.8636 2.03501C15.8415 0.32103 15.3987 -0.144492 14.9624 0.0364905Z" fill="#BC9A6C"/>
<path fill-rule="evenodd" clip-rule="evenodd" d="M14.9624 0.0364905C14.6059 0.184431 14.3493 0.85563 14.2789 1.82478C14.229 2.51072 14.051 4.44511 14.0359 4.46422C14.0272 4.47533 13.8902 4.44137 13.7315 4.38864C13.3427 4.25952 13.1926 4.33142 13.2178 4.63478C13.2349 4.84069 13.2468 4.85088 13.6213 4.9823L14.0072 5.11769L13.9784 5.50038C13.9625 5.71083 13.9366 5.991 13.9207 6.12288L13.8919 6.36275L13.3334 6.46159C12.7177 6.57056 12.631 6.61281 12.631 6.8041C12.631 7.03199 12.7596 7.08052 13.2496 7.03758C13.4951 7.01599 13.7413 6.98531 13.7967 6.96931C13.8847 6.94392 13.8971 6.98278 13.8946 7.27515C13.893 7.45929 13.858 8.00587 13.8168 8.48969C13.7454 9.32812 13.7338 9.37947 13.5698 9.58342C13.188 10.0585 12.6445 10.3792 10.9617 11.1225C8.36954 12.2674 7.13922 13.0108 6.06737 14.0796C4.80188 15.3416 3.8569 17.3994 3.49511 19.681C3.37739 20.4236 3.36202 22.5631 3.46938 23.2653C3.50305 23.4857 3.51848 23.6782 3.50363 23.6931C3.43927 23.7574 3.07391 23.3133 2.90329 22.9634C2.2063 21.5339 2.14741 18.9065 2.75788 16.4749C3.48337 13.5854 5.35806 10.6351 8.05841 8.1332C9.7493 6.56653 10.2378 5.85377 10.127 5.11476C10.0756 4.77225 10.0222 4.67122 9.73358 4.37143C9.39355 4.01827 9.02917 3.8971 8.30731 3.8971C7.64884 3.8971 7.12477 4.03951 6.47493 4.39503C4.67691 5.37863 3.12946 7.2946 1.80951 10.1716C0.0873616 13.9251 -0.4321 18.0851 0.365511 21.7358C0.513739 22.4141 0.674401 22.8768 0.999237 23.5607C1.53752 24.694 2.32679 25.6485 3.18455 26.2034C3.71259 26.545 3.88638 26.615 4.54082 26.7496C5.71652 26.9916 6.30805 27.0096 12.6598 26.9971C21.9009 26.9789 24.898 26.8929 25.2062 26.6372C25.2485 26.6021 25.2958 26.4772 25.3114 26.3596C25.3685 25.9284 25.2085 24.1741 25.011 23.066C24.98 22.8919 24.7987 21.1822 24.6082 19.2668C24.1039 14.1957 23.8987 11.805 23.771 9.50962C23.6233 6.85544 23.6264 7.05594 23.7328 7.08633C23.9212 7.1401 25.0988 7.2459 25.2952 7.22673C25.4764 7.209 25.4985 7.18793 25.515 7.01622C25.5411 6.7436 25.4595 6.68097 25.0212 6.6375C24.8078 6.61632 24.4066 6.57056 24.1295 6.53573L23.6258 6.47241V5.99935V5.52623L24.7051 5.09685C25.7159 4.69477 25.7856 4.65741 25.803 4.50906C25.827 4.3046 25.7247 4.18492 25.5259 4.18492C25.439 4.18492 25.0083 4.32733 24.5688 4.50135C24.1293 4.67537 23.7339 4.81784 23.6902 4.81795C23.6233 4.81813 23.6187 4.6003 23.6614 3.45097C23.7607 0.775098 23.7303 0.41486 23.3903 0.239059C23.1491 0.114317 22.9616 0.137055 22.774 0.31372C22.5662 0.509381 21.6604 1.55567 20.8463 2.54036C20.7325 2.67806 20.6443 2.71709 20.3674 2.75237C19.5332 2.85864 19.1561 2.87326 18.2655 2.834L17.315 2.79204L16.8636 2.03501C15.8415 0.32103 15.3987 -0.144492 14.9624 0.0364905ZM15.4719 0.889363C15.5473 1.00812 15.8691 1.5456 16.1871 2.08382C16.505 2.62205 16.8305 3.12349 16.9102 3.19809C17.0482 3.32715 17.1135 3.33654 18.2418 3.3899C19.6968 3.45869 20.5618 3.39738 20.966 3.19683C21.2506 3.05562 21.6014 2.65843 22.4571 1.50824C22.9459 0.851313 23.0317 0.780854 23.1503 0.938868C23.2142 1.02395 23.2242 1.1731 23.1964 1.62331C23.1028 3.13679 23.0517 4.19966 23.051 4.64572L23.0502 5.13531L22.7047 5.26926C22.3078 5.42319 22.2073 5.59686 22.3951 5.80432C22.5012 5.92164 22.6863 5.92831 22.9494 5.82424C23.0376 5.78935 23.0502 5.82193 23.0502 6.08558C23.0502 6.38612 23.0498 6.3867 22.8858 6.35389C22.6834 6.31342 22.4745 6.44639 22.4745 6.61575C22.4745 6.77629 22.6347 6.94778 22.7857 6.94887C23.049 6.95083 23.0574 6.98594 23.1127 8.30721C23.2914 12.5811 24.2587 23.2532 24.6966 25.7818C24.7325 25.989 24.7284 25.9949 24.5105 26.0526C24.2228 26.1288 23.169 26.215 21.8997 26.2661L20.8931 26.3067L21.1853 25.987C21.6972 25.427 22.1326 24.674 22.296 24.0664C22.3578 23.8368 22.3691 23.8279 22.6474 23.791C22.8648 23.7621 22.9577 23.7182 23.0279 23.6109C23.114 23.4796 23.1135 23.4576 23.0218 23.3177C22.9257 23.171 22.9102 23.1675 22.5115 23.2035C21.8319 23.2647 20.0689 23.4016 19.4236 23.4432C18.9253 23.4753 18.8318 23.4688 18.8911 23.4064C18.9901 23.3024 18.9816 23.0379 18.8765 22.9507C18.7938 22.882 18.563 22.8948 18.2292 22.9863C18.1366 23.0117 18.0996 22.9972 18.0996 22.9355C18.0996 22.8391 18.2662 22.7801 18.5417 22.779C18.8382 22.7777 18.9808 22.5658 18.8498 22.3212C18.7844 22.1988 18.8522 22.169 20.5173 21.5895C22.1675 21.0152 23.0121 20.6948 23.1221 20.601C23.3467 20.4099 23.1343 20.0349 22.8429 20.1081C22.7237 20.138 22.7116 20.116 22.677 19.8043C22.55 18.6592 22.3536 18.314 21.6193 17.9451C21.1192 17.6938 20.7239 17.6521 18.3011 17.595C15.0136 17.5177 11.1109 17.6613 10.2442 17.8916C9.6747 18.0429 9.08777 18.5234 8.9453 18.955L8.88042 19.1516H8.45733C7.4161 19.1516 6.61751 19.3829 6.12286 19.8276C5.72964 20.1812 5.52575 20.494 5.33913 21.0302C5.19827 21.4349 5.18123 21.5656 5.17898 22.2601C5.1768 22.9292 5.19516 23.0913 5.31098 23.4267C5.57364 24.1872 6.05764 24.7269 6.76402 25.0467C7.2795 25.2801 7.86459 25.3686 8.89251 25.3686H9.82149L10.1906 25.7068C10.3936 25.8928 10.7343 26.1379 10.9477 26.2515L11.3358 26.4581L10.1558 26.4319C9.50672 26.4175 8.27629 26.3924 7.42146 26.3761C4.55332 26.3216 3.83169 26.12 2.78442 25.0808C2.04633 24.3483 1.59802 23.592 1.20399 22.4144C0.781356 21.1513 0.600086 19.9398 0.600086 18.3777C0.600086 16.7826 0.755797 15.5143 1.14758 13.9189C2.02388 10.3501 3.93099 6.96643 5.90084 5.48564C6.75481 4.84369 7.43493 4.54159 8.14101 4.49059C8.7136 4.4492 9.02589 4.53819 9.31187 4.82417C9.5233 5.03555 9.53539 5.06611 9.5096 5.32233C9.44784 5.93597 9.04304 6.46245 7.75205 7.60821C5.34529 9.74431 3.3512 12.666 2.44686 15.3812C1.93253 16.9255 1.78585 17.9231 1.78251 19.9C1.78056 21.0543 1.79921 21.3986 1.88498 21.7969C2.18207 23.1755 2.65698 23.9766 3.38637 24.3297C3.79986 24.5299 4.09706 24.4726 4.22307 24.1684C4.28161 24.0271 4.27396 23.9389 4.17558 23.6204C4.10253 23.3839 4.03443 22.9168 3.99494 22.3809C3.78063 19.4753 4.74276 16.3537 6.39134 14.6061C6.84438 14.1259 7.68913 13.473 8.40304 13.0513C9.11022 12.6336 9.75224 12.3188 11.339 11.6116C12.8372 10.9439 13.5359 10.5398 13.892 10.1353C14.3002 9.67166 14.3364 9.53483 14.4159 8.15686C14.4552 7.47616 14.4911 6.91439 14.4957 6.90852C14.5003 6.90265 14.7587 6.85682 15.0699 6.8068C15.7571 6.69616 15.8546 6.65 15.8546 6.43494C15.8546 6.15419 15.739 6.11079 15.1994 6.18879C14.4583 6.29598 14.5111 6.32528 14.5433 5.82447C14.5586 5.58649 14.584 5.3788 14.5998 5.36292C14.6157 5.34709 14.8926 5.44132 15.2151 5.57228C15.7804 5.80184 15.8057 5.80679 15.9144 5.7083C15.9766 5.65212 16.0273 5.53313 16.0273 5.44391C16.0273 5.25694 15.9641 5.21659 15.2214 4.92986C14.9523 4.82596 14.7075 4.7194 14.6774 4.6931C14.596 4.62201 14.683 3.51159 14.9065 1.76722C15.019 0.889248 15.0815 0.673497 15.2233 0.673497C15.2895 0.673497 15.3906 0.761282 15.4719 0.889363ZM21.5535 4.64543C21.4189 4.78002 21.4094 4.87155 21.5148 5.0158C21.6665 5.22327 22.0716 5.09242 22.0716 4.83591C22.0716 4.73328 21.8613 4.53031 21.755 4.53031C21.7075 4.53031 21.6168 4.58211 21.5535 4.64543ZM17.284 4.71739C17.0422 4.91219 17.1763 5.24007 17.4853 5.20991C17.7273 5.18631 17.8291 4.93872 17.6695 4.76229C17.5487 4.62886 17.4134 4.61308 17.284 4.71739ZM19.0972 5.17077C18.8924 5.27536 18.88 5.48559 19.0578 5.83696C19.2814 6.27894 19.4363 6.42999 19.6655 6.42952C19.9032 6.42906 20.1354 6.27836 20.3859 5.96181C20.6183 5.66812 20.6239 5.43217 20.4022 5.27306C20.2236 5.14486 19.2909 5.07176 19.0972 5.17077ZM15.4771 11.8704C15.0299 12.1346 14.6401 12.5562 14.4093 13.025C14.261 13.3261 14.218 13.4953 14.1969 13.8597C14.1617 14.4679 14.2465 14.741 14.6675 15.3759C15.0505 15.9532 15.1575 16.199 15.1613 16.5091C15.1648 16.7902 15.337 16.9492 15.5541 16.8718C15.7061 16.8177 15.7106 16.8033 15.7069 16.3864C15.7025 15.9078 15.6486 15.7728 15.1667 15.0346C14.8193 14.5023 14.7406 14.2738 14.7725 13.8893C14.822 13.2918 15.3212 12.6118 15.941 12.2975C16.1677 12.1825 16.2327 12.1179 16.2473 11.9928C16.291 11.6197 15.9839 11.5709 15.4771 11.8704ZM13.1222 12.6037C12.6728 13.068 12.4626 13.5982 12.4597 14.2749C12.4578 14.7345 12.6361 15.2205 12.9792 15.6908C13.197 15.9892 13.281 16.1629 13.3167 16.3886C13.3806 16.7932 13.5926 16.9177 13.8094 16.6782C13.8895 16.5898 13.9064 16.4968 13.8863 16.2548C13.8601 15.939 13.7558 15.7256 13.3535 15.1648C12.8676 14.4873 12.9853 13.5514 13.6325 12.9459C14.0027 12.5996 13.9816 12.3015 13.587 12.3015C13.4546 12.3015 13.3468 12.3716 13.1222 12.6037ZM17.057 12.7441C16.8203 12.9699 16.6472 13.2059 16.5 13.5039C16.2982 13.9121 16.2864 13.9668 16.2864 14.491C16.2864 15.0252 16.2938 15.0576 16.4851 15.3575C16.8043 15.8579 17.0059 16.2781 17.0059 16.4427C17.0059 16.6362 17.1025 16.7339 17.2937 16.7339C17.4991 16.7339 17.5816 16.6338 17.5816 16.3843C17.5816 16.0893 17.4468 15.7385 17.1875 15.3587C16.898 14.9346 16.8119 14.6635 16.8594 14.3263C16.9182 13.9088 17.1438 13.5061 17.5228 13.142C17.8885 12.7908 17.9358 12.6673 17.7641 12.5119C17.5806 12.3458 17.4189 12.3989 17.057 12.7441ZM8.717 21.7276C8.71717 21.973 8.75603 22.4306 8.80335 22.7444C8.85066 23.0582 8.88935 23.3367 8.88935 23.3632C8.88935 23.4305 8.45813 23.4233 8.05086 23.3494C7.31853 23.2164 6.99352 22.8576 6.99099 22.1792C6.98978 21.8592 7.00268 21.8271 7.21094 21.6289C7.488 21.3653 7.7068 21.2948 8.27053 21.2874L8.71665 21.2815L8.717 21.7276Z" fill="#C8A8BD"/>
<path fill-rule="evenodd" clip-rule="evenodd" d="M14.9624 0.0364905C14.6059 0.184431 14.3493 0.85563 14.2789 1.82478C14.229 2.51072 14.051 4.44511 14.0359 4.46422C14.0272 4.47533 13.8902 4.44137 13.7315 4.38864C13.3427 4.25952 13.1926 4.33142 13.2178 4.63478C13.2349 4.84069 13.2468 4.85088 13.6213 4.9823L14.0072 5.11769L13.9784 5.50038C13.9625 5.71083 13.9366 5.991 13.9207 6.12288L13.8919 6.36275L13.3334 6.46159C12.7177 6.57056 12.631 6.61281 12.631 6.8041C12.631 7.03199 12.7596 7.08052 13.2496 7.03758C13.4951 7.01599 13.7413 6.98531 13.7967 6.96931C13.8847 6.94392 13.8971 6.98278 13.8946 7.27515C13.893 7.45929 13.858 8.00587 13.8168 8.48969C13.7454 9.32812 13.7338 9.37947 13.5698 9.58342C13.188 10.0585 12.6445 10.3792 10.9617 11.1225C8.36954 12.2674 7.13922 13.0108 6.06737 14.0796C4.80188 15.3416 3.8569 17.3994 3.49511 19.681C3.37739 20.4236 3.36202 22.5631 3.46938 23.2653C3.50305 23.4857 3.51848 23.6782 3.50363 23.6931C3.43927 23.7574 3.07391 23.3133 2.90329 22.9634C2.2063 21.5339 2.14741 18.9065 2.75788 16.4749C3.48337 13.5854 5.35806 10.6351 8.05841 8.1332C9.7493 6.56653 10.2378 5.85377 10.127 5.11476C10.0756 4.77225 10.0222 4.67122 9.73358 4.37143C9.39355 4.01827 9.02917 3.8971 8.30731 3.8971C7.64884 3.8971 7.12477 4.03951 6.47493 4.39503C4.67691 5.37863 3.12946 7.2946 1.80951 10.1716C0.0873616 13.9251 -0.4321 18.0851 0.365511 21.7358C0.513739 22.4141 0.674401 22.8768 0.999237 23.5607C1.53752 24.694 2.32679 25.6485 3.18455 26.2034C3.71259 26.545 3.88638 26.615 4.54082 26.7496C5.71652 26.9916 6.30805 27.0096 12.6598 26.9971C21.9009 26.9789 24.898 26.8929 25.2062 26.6372C25.2485 26.6021 25.2958 26.4772 25.3114 26.3596C25.3685 25.9284 25.2085 24.1741 25.011 23.066C24.98 22.8919 24.7987 21.1822 24.6082 19.2668C24.1039 14.1957 23.8987 11.805 23.771 9.50962C23.6233 6.85544 23.6264 7.05594 23.7328 7.08633C23.9212 7.1401 25.0988 7.2459 25.2952 7.22673C25.4764 7.209 25.4985 7.18793 25.515 7.01622C25.5411 6.7436 25.4595 6.68097 25.0212 6.6375C24.8078 6.61632 24.4066 6.57056 24.1295 6.53573L23.6258 6.47241V5.99935V5.52623L24.7051 5.09685C25.7159 4.69477 25.7856 4.65741 25.803 4.50906C25.827 4.3046 25.7247 4.18492 25.5259 4.18492C25.439 4.18492 25.0083 4.32733 24.5688 4.50135C24.1293 4.67537 23.7339 4.81784 23.6902 4.81795C23.6233 4.81813 23.6187 4.6003 23.6614 3.45097C23.7607 0.775098 23.7303 0.41486 23.3903 0.239059C23.1491 0.114317 22.9616 0.137055 22.774 0.31372C22.5662 0.509381 21.6604 1.55567 20.8463 2.54036C20.7325 2.67806 20.6443 2.71709 20.3674 2.75237C19.5332 2.85864 19.1561 2.87326 18.2655 2.834L17.315 2.79204L16.8636 2.03501C15.8415 0.32103 15.3987 -0.144492 14.9624 0.0364905ZM15.4705 0.879347C15.56 1.00357 15.9041 1.56505 16.2353 2.12705C16.5774 2.70765 16.902 3.19119 16.987 3.24691C17.1161 3.33147 17.3509 3.34828 18.6915 3.36929C20.3683 3.39554 20.7315 3.35818 21.093 3.1224C21.2639 3.0109 22.0025 2.10852 22.7206 1.13401C22.9499 0.822703 23.1428 0.765542 23.1997 0.992C23.2208 1.07627 23.2093 1.65434 23.174 2.27655C23.1387 2.89876 23.0929 3.80068 23.0722 4.28082L23.0346 5.15384L22.7689 5.25314C22.416 5.38502 22.3594 5.43631 22.3594 5.62403C22.3594 5.86511 22.4889 5.94299 22.7565 5.86286C23.0608 5.77168 23.0502 5.76368 23.0502 6.08454V6.37236H22.8269C22.2873 6.37236 22.3793 6.85999 22.9403 6.9731L23.0894 7.00315L23.1271 8.17004C23.2423 11.7335 24.152 22.0395 24.6418 25.3294C24.6951 25.6878 24.713 25.9736 24.6838 26.0025C24.5942 26.0914 23.9166 26.1707 22.7353 26.2308C22.1011 26.2631 21.4019 26.3014 21.1815 26.316L20.7808 26.3425L21.0164 26.129C21.5144 25.6776 21.961 24.9831 22.2147 24.2657C22.3766 23.808 22.4292 23.7594 22.7652 23.7576C22.9542 23.7566 23.0502 23.6579 23.0502 23.4645C23.0502 23.1931 22.9513 23.1642 22.2612 23.2346C21.3394 23.3286 19.4393 23.469 19.0885 23.469C18.81 23.469 18.7904 23.4607 18.8727 23.3785C18.9901 23.261 18.9877 23.0988 18.8667 22.9779C18.7712 22.8823 18.7129 22.8832 18.2522 22.9871C18.1129 23.0185 18.0913 23.0077 18.1088 22.9155C18.1253 22.8288 18.189 22.8035 18.4248 22.7898C18.8071 22.7675 18.9595 22.6239 18.8653 22.3744L18.802 22.2067L19.3863 21.9814C19.7076 21.8575 20.4627 21.5852 21.0642 21.3763C22.584 20.8485 23.1141 20.6352 23.1848 20.5233C23.2281 20.4544 23.2252 20.3827 23.1745 20.2713C23.1111 20.1322 23.08 20.1188 22.883 20.1452L22.6625 20.1748L22.6299 19.6776C22.612 19.4042 22.5694 19.0868 22.5354 18.9724C22.4415 18.6572 22.1723 18.2927 21.8965 18.1075C21.2094 17.646 20.3521 17.5754 15.8906 17.613C12.3568 17.6428 10.8751 17.7281 10.1558 17.9434C9.66071 18.0915 9.2619 18.402 9.03924 18.8125L8.86419 19.1353L8.22914 19.1717C7.1699 19.2322 6.59132 19.4239 6.0687 19.8875C5.15469 20.6983 4.87838 22.5372 5.47883 23.8127C5.67444 24.2281 6.23229 24.7821 6.65378 24.9795C7.25964 25.2632 7.5797 25.3203 8.74526 25.3526L9.83887 25.383L10.1498 25.6673C10.3209 25.8236 10.6577 26.068 10.8983 26.2103L11.3358 26.4692L9.1196 26.4339C5.70437 26.3796 4.71288 26.29 4.01129 25.9725C2.75098 25.4021 1.77497 24.1678 1.18229 22.3948C0.749754 21.101 0.579939 19.9277 0.583738 18.2594C0.588113 16.3174 0.911739 14.3888 1.56895 12.3878C2.35856 9.98383 3.73038 7.55899 5.05332 6.2288C6.49605 4.77812 8.02939 4.14969 9.01979 4.60307C9.53297 4.83804 9.65645 5.24951 9.38659 5.8255C9.18465 6.2566 8.81267 6.67751 7.9602 7.43961C4.43318 10.5926 2.27722 14.3402 1.86829 18.0291C1.50223 21.3309 2.05928 23.6431 3.37929 24.3009C3.73947 24.4804 3.91948 24.4858 4.09343 24.3224C4.25007 24.1752 4.26722 23.9069 4.14288 23.5501C4.01411 23.1806 3.92034 21.9133 3.96017 21.08C4.06379 18.9107 4.6525 17.0201 5.72245 15.4206C6.68308 13.9844 8.38123 12.8394 11.4742 11.5423C13.0343 10.8881 13.8759 10.3174 14.1906 9.70067C14.3085 9.46961 14.3286 9.29323 14.4476 7.45146C14.4888 6.81371 14.4156 6.88284 15.1637 6.77468C15.7954 6.68333 15.9846 6.51455 15.7757 6.22886C15.7001 6.12541 15.6723 6.12449 15.1137 6.20807L14.5306 6.29523V5.84271C14.5306 5.5207 14.5526 5.38174 14.6067 5.36096C14.6485 5.3449 14.8969 5.42342 15.1587 5.53549C15.663 5.75136 15.8462 5.78216 15.9582 5.67008C16.0586 5.56969 16.0429 5.36764 15.9266 5.26586C15.8286 5.18003 14.8162 4.76056 14.7071 4.76056C14.6771 4.76056 14.637 4.73535 14.618 4.70455C14.5769 4.63824 14.851 1.87924 14.963 1.23112C15.0412 0.778264 15.1276 0.594634 15.2444 0.632742C15.2793 0.644139 15.381 0.755066 15.4705 0.879347ZM21.5967 4.59247C21.481 4.65988 21.4615 4.93331 21.565 5.03687C21.603 5.07486 21.6885 5.10595 21.755 5.10595C22.0012 5.10595 22.1063 4.80356 21.9236 4.62074C21.8195 4.51672 21.7388 4.5097 21.5967 4.59247ZM17.269 4.73587C17.0873 4.91766 17.1914 5.222 17.4348 5.22021C17.7062 5.21814 17.8281 4.94955 17.6421 4.7635C17.5006 4.62206 17.391 4.61395 17.269 4.73587ZM19.1278 5.1851C18.8602 5.31779 18.9545 5.79183 19.3396 6.24952C19.576 6.53055 19.7968 6.50125 20.1965 6.13589C20.6377 5.73277 20.6927 5.42768 20.3549 5.257C20.1408 5.14878 19.3004 5.0995 19.1278 5.1851ZM15.5951 11.8212C15.1745 12.0449 14.9122 12.2736 14.654 12.6418C14.3144 13.1259 14.1673 13.611 14.1984 14.1435C14.2259 14.6117 14.3182 14.8409 14.7155 15.4272C15.0211 15.8781 15.1611 16.2017 15.1626 16.4605C15.1634 16.5983 15.2055 16.718 15.279 16.7915C15.518 17.0305 15.7405 16.8679 15.7376 16.4564C15.735 16.0726 15.5805 15.679 15.2293 15.1607C14.8352 14.5791 14.7608 14.3925 14.7615 13.9871C14.7625 13.364 15.2884 12.5937 15.912 12.3015C16.2464 12.1449 16.3354 11.9648 16.1692 11.7811C16.0341 11.6319 15.9383 11.6386 15.5951 11.8212ZM13.1535 12.585C12.6237 13.1011 12.3754 13.8979 12.5099 14.6505C12.5801 15.0434 12.6387 15.1635 13.0772 15.8135C13.2539 16.0755 13.3218 16.2344 13.3218 16.386C13.3218 16.6353 13.4046 16.7339 13.6141 16.7339C13.8515 16.7339 13.9183 16.6079 13.8797 16.2332C13.8521 15.9661 13.7962 15.8365 13.5696 15.5142C13.1025 14.8502 13.0621 14.7469 13.0679 14.2299C13.0743 13.6493 13.199 13.3572 13.6139 12.9507C13.8959 12.6745 13.9163 12.6371 13.8649 12.4902C13.8224 12.3685 13.7663 12.3261 13.63 12.3128C13.4815 12.2982 13.4004 12.3445 13.1535 12.585ZM17.2267 12.6063C16.697 13.0103 16.3391 13.6639 16.2766 14.3412C16.2341 14.8027 16.3113 15.0586 16.6585 15.6083C16.8173 15.8598 16.9628 16.1577 16.9817 16.2703C17.0414 16.6264 17.0676 16.6752 17.2201 16.7135C17.4673 16.7756 17.5535 16.6726 17.547 16.3234C17.5407 15.9917 17.4311 15.7303 17.0708 15.1876C16.8838 14.9058 16.862 14.8336 16.862 14.4939C16.862 13.9738 17.0646 13.5503 17.5229 13.1129C17.8921 12.7605 17.9312 12.6631 17.7641 12.5119C17.6121 12.3743 17.5066 12.3928 17.2267 12.6063ZM8.72707 21.8572C8.74866 22.1896 8.79707 22.6619 8.83472 22.9066C8.87231 23.1514 8.89355 23.3694 8.88181 23.391C8.84727 23.4548 8.2163 23.4097 7.86562 23.3184C7.46849 23.2149 7.17802 23.0023 7.06531 22.7325C6.94108 22.4352 6.94505 21.9794 7.07377 21.7614C7.26908 21.4308 7.79885 21.2238 8.40005 21.2434L8.68787 21.2527L8.72707 21.8572Z" fill="#94859A"/>
<path fill-rule="evenodd" clip-rule="evenodd" d="M14.9624 0.0364905C14.6059 0.184431 14.3493 0.85563 14.2789 1.82478C14.229 2.51072 14.051 4.44511 14.0359 4.46422C14.0272 4.47533 13.8902 4.44137 13.7315 4.38864C13.3427 4.25952 13.1926 4.33142 13.2178 4.63478C13.2349 4.84069 13.2468 4.85088 13.6213 4.9823L14.0072 5.11769L13.9784 5.50038C13.9625 5.71083 13.9366 5.991 13.9207 6.12288L13.8919 6.36275L13.3334 6.46159C12.7177 6.57056 12.631 6.61281 12.631 6.8041C12.631 7.03199 12.7596 7.08052 13.2496 7.03758C13.4951 7.01599 13.7413 6.98531 13.7967 6.96931C13.8847 6.94392 13.8971 6.98278 13.8946 7.27515C13.893 7.45929 13.858 8.00587 13.8168 8.48969C13.7454 9.32812 13.7338 9.37947 13.5698 9.58342C13.188 10.0585 12.6445 10.3792 10.9617 11.1225C7.05638 12.8474 5.66137 13.9802 4.51244 16.3593C3.83019 17.772 3.46616 19.2482 3.38367 20.9361C3.34682 21.6901 3.44279 23.368 3.5369 23.6156C3.5852 23.7427 3.57979 23.7534 3.49189 23.7058C3.15047 23.5206 2.78966 22.8671 2.58652 22.0659C2.1994 20.5395 2.26369 18.4434 2.75788 16.4749C3.48337 13.5854 5.35806 10.6351 8.05841 8.1332C9.7493 6.56653 10.2378 5.85377 10.127 5.11476C10.0756 4.77225 10.0222 4.67122 9.73358 4.37143C9.39355 4.01827 9.02917 3.8971 8.30731 3.8971C7.64884 3.8971 7.12477 4.03951 6.47493 4.39503C4.67691 5.37863 3.12946 7.2946 1.80951 10.1716C0.0873616 13.9251 -0.4321 18.0851 0.365511 21.7358C0.513739 22.4141 0.674401 22.8768 0.999237 23.5607C1.53752 24.694 2.32679 25.6485 3.18455 26.2034C3.71259 26.545 3.88638 26.615 4.54082 26.7496C5.71652 26.9916 6.30805 27.0096 12.6598 26.9971C21.9009 26.9789 24.898 26.8929 25.2062 26.6372C25.2485 26.6021 25.2958 26.4772 25.3114 26.3596C25.3685 25.9284 25.2085 24.1741 25.011 23.066C24.98 22.8919 24.7987 21.1822 24.6082 19.2668C24.1039 14.1957 23.8987 11.805 23.771 9.50962C23.6233 6.85544 23.6264 7.05594 23.7328 7.08633C23.9212 7.1401 25.0988 7.2459 25.2952 7.22673C25.4764 7.209 25.4985 7.18793 25.515 7.01622C25.5411 6.7436 25.4595 6.68097 25.0212 6.6375C24.8078 6.61632 24.4066 6.57056 24.1295 6.53573L23.6258 6.47241V5.99935V5.52623L24.7051 5.09685C25.7159 4.69477 25.7856 4.65741 25.803 4.50906C25.827 4.3046 25.7247 4.18492 25.5259 4.18492C25.439 4.18492 25.0083 4.32733 24.5688 4.50135C24.1293 4.67537 23.7339 4.81784 23.6902 4.81795C23.6233 4.81813 23.6187 4.6003 23.6614 3.45097C23.7607 0.775098 23.7303 0.41486 23.3903 0.239059C23.1491 0.114317 22.9616 0.137055 22.774 0.31372C22.5662 0.509381 21.6604 1.55567 20.8463 2.54036C20.7325 2.67806 20.6443 2.71709 20.3674 2.75237C19.5332 2.85864 19.1561 2.87326 18.2655 2.834L17.315 2.79204L16.8636 2.03501C15.8415 0.32103 15.3987 -0.144492 14.9624 0.0364905ZM15.4209 0.803016C15.5052 0.905884 15.863 1.47802 16.216 2.07432C16.6947 2.88287 16.9024 3.18203 17.0326 3.25094C17.1811 3.3294 17.4626 3.34379 18.9055 3.34673C21.0883 3.35122 20.9304 3.40976 21.8469 2.25652C22.1488 1.87659 22.5118 1.41032 22.6535 1.22036C22.9517 0.820746 23.1379 0.745797 23.2017 0.999771C23.2239 1.08836 23.2113 1.74414 23.1738 2.45701C23.1363 3.16989 23.1061 3.95035 23.1067 4.19125C23.1073 4.43222 23.0917 4.74663 23.072 4.89002C23.0373 5.14342 23.0269 5.15471 22.6978 5.29666C22.3912 5.429 22.3594 5.45916 22.3594 5.6177C22.3594 5.86326 22.5153 5.93689 22.816 5.83327L23.0476 5.75349L23.0827 5.94029C23.102 6.04298 23.109 6.18868 23.0983 6.26409C23.0809 6.38716 23.0544 6.39919 22.8387 6.38226C22.6392 6.36655 22.5871 6.3848 22.5306 6.49026C22.4191 6.6987 22.5382 6.87352 22.8313 6.93137L23.0789 6.98024L23.1475 8.47519C23.337 12.6087 24.1467 21.7065 24.6422 25.2708C24.7008 25.6917 24.7163 25.9705 24.6829 26.0039C24.5611 26.1257 23.7374 26.2059 21.4384 26.3199L20.7188 26.3555L20.9267 26.1933C21.3973 25.826 22.1436 24.6551 22.2779 24.0734C22.3361 23.8211 22.4075 23.7568 22.6293 23.7568C22.9 23.7568 23.0502 23.6651 23.0502 23.4998C23.0502 23.3028 22.8954 23.1685 22.712 23.2062C22.4565 23.2587 19.6071 23.469 19.1504 23.469C18.7243 23.469 18.7213 23.4679 18.8503 23.3636C18.9498 23.283 18.9716 23.2229 18.9428 23.1083C18.8925 22.9074 18.7388 22.87 18.3902 22.9736L18.0996 23.0598V22.919C18.0996 22.7935 18.1242 22.7782 18.3262 22.7782C18.4507 22.7782 18.6213 22.7521 18.7052 22.7202C18.8411 22.6685 18.8557 22.6365 18.8385 22.4275L18.8192 22.1928L19.1646 22.0519C19.3545 21.9744 19.9244 21.7675 20.431 21.5921C22.2356 20.9676 23.1169 20.6215 23.1745 20.5149C23.2155 20.4391 23.2046 20.3699 23.135 20.2637C23.0553 20.142 23.0068 20.1222 22.8512 20.1474L22.6636 20.1779L22.6292 19.7079C22.576 18.9816 22.4582 18.6673 22.1082 18.3174C21.7823 17.9914 21.409 17.8319 20.69 17.711C20.1091 17.6135 14.9174 17.5703 13.293 17.6497C10.7613 17.7733 10.06 17.8869 9.51979 18.2613C9.30358 18.4111 9.0473 18.7437 8.94921 19.0017C8.90207 19.1257 8.85533 19.1382 8.29793 19.1755C7.11124 19.255 6.50526 19.468 5.98454 19.9883C5.45782 20.5148 5.19291 21.2803 5.18848 22.2889C5.18163 23.848 5.89796 24.8286 7.3164 25.2018C7.65753 25.2915 8.01834 25.3277 8.803 25.351L9.83916 25.3817L10.0406 25.5679C10.3348 25.8397 10.622 26.0433 11.0311 26.2698L11.3934 26.4705L8.91813 26.4369C5.40861 26.3893 4.63661 26.3049 3.81857 25.8801C2.17395 25.026 1.1173 23.1491 0.678777 20.3029C0.554726 19.4981 0.537571 17.3541 0.648152 16.4749C1.07505 13.0798 2.25005 9.94124 4.04197 7.40985C4.47203 6.80231 5.46778 5.76218 5.95357 5.41305C6.87275 4.75239 7.58005 4.46054 8.28492 4.45098C8.66911 4.4458 8.79264 4.46854 9.03026 4.58827C9.59169 4.87114 9.68552 5.25038 9.35533 5.90229C9.1576 6.29258 8.80225 6.66876 7.26615 8.11351C5.61814 9.6636 4.24943 11.4986 3.26232 13.4816C2.34164 15.331 1.94721 16.8366 1.8056 19.042C1.63492 21.7004 2.18322 23.6259 3.2865 24.2425C3.69256 24.4695 3.90365 24.488 4.07956 24.312C4.24932 24.1423 4.26659 23.942 4.14179 23.5884C3.91585 22.948 3.88361 20.8582 4.08135 19.6697C4.45005 17.4534 5.46738 15.347 6.68699 14.2747C7.84363 13.2579 8.98652 12.6038 11.5661 11.4828C12.7482 10.9691 13.2657 10.6737 13.7194 10.2536C14.2426 9.76923 14.2941 9.62193 14.3641 8.40755C14.3967 7.84227 14.441 7.26455 14.4626 7.12375L14.5019 6.86776L15.0861 6.77583C15.4075 6.72523 15.7119 6.64948 15.7625 6.6074C15.8862 6.5047 15.8787 6.3544 15.7437 6.23225C15.6395 6.1379 15.6008 6.13739 15.0992 6.22356C14.8057 6.27393 14.5475 6.29569 14.5255 6.2718C14.5034 6.24797 14.4989 6.02767 14.5156 5.78233C14.5381 5.44874 14.5665 5.33621 14.6278 5.33621C14.6729 5.33621 14.9321 5.42819 15.2037 5.54067C15.7671 5.77381 15.9155 5.77663 15.9929 5.55553C16.0718 5.33033 15.9909 5.26494 15.2907 4.98737C14.9518 4.85301 14.6512 4.7224 14.6226 4.69707C14.5682 4.64877 14.7561 2.55683 14.9116 1.4794C14.9931 0.914 15.0986 0.615932 15.2171 0.615932C15.2449 0.615932 15.3366 0.700149 15.4209 0.803016ZM21.565 4.65695C21.4035 4.81841 21.5252 5.10595 21.755 5.10595C21.9092 5.10595 22.014 5.00118 22.014 4.84691C22.014 4.69264 21.9092 4.58787 21.755 4.58787C21.6885 4.58787 21.603 4.61895 21.565 4.65695ZM17.2503 4.76948C17.0848 4.93498 17.2063 5.22108 17.4421 5.22108C17.6111 5.22108 17.7089 5.08983 17.6864 4.89354C17.6712 4.76097 17.6367 4.72873 17.4949 4.7148C17.3998 4.70547 17.2897 4.73005 17.2503 4.76948ZM19.0322 5.23259C18.8987 5.36602 18.9572 5.65465 19.191 6.01639C19.5081 6.50695 19.7368 6.54874 20.1447 6.19058C20.8547 5.56721 20.6459 5.16351 19.6135 5.16351C19.2919 5.16351 19.0756 5.18919 19.0322 5.23259ZM15.5845 11.8412C15.1949 12.0359 14.6696 12.5495 14.48 12.9211C14.3321 13.2111 14.1853 13.7529 14.1853 14.0089C14.1853 14.4399 14.3132 14.7786 14.7043 15.3827C15.0771 15.9585 15.1432 16.1238 15.2333 16.7052C15.2545 16.8413 15.5282 16.8952 15.6566 16.7886C15.8708 16.6109 15.6921 15.904 15.2699 15.259C14.8501 14.6174 14.7421 14.3488 14.7458 13.955C14.7513 13.364 15.243 12.6268 15.8291 12.3308C16.2732 12.1065 16.361 11.9524 16.1523 11.7635C16.0122 11.6368 15.9865 11.6404 15.5845 11.8412ZM13.3057 12.4553C12.826 12.7967 12.4989 13.5299 12.5036 14.2531C12.5074 14.8342 12.6168 15.1551 12.9761 15.6399C13.1896 15.9278 13.2841 16.1132 13.3063 16.2879C13.3512 16.6404 13.4148 16.7339 13.6096 16.7339C13.8364 16.7339 13.9203 16.569 13.8687 16.2244C13.8207 15.9047 13.7376 15.7362 13.405 15.2844C13.1198 14.897 13.0348 14.6522 13.0343 14.2177C13.0338 13.7563 13.2275 13.3143 13.5882 12.9536C13.9168 12.625 13.9513 12.5363 13.807 12.3919C13.6784 12.2634 13.5532 12.2792 13.3057 12.4553ZM17.421 12.4768C17.2009 12.5651 16.7251 13.1078 16.5432 13.4779C16.1859 14.2049 16.1947 14.8759 16.5692 15.4417C16.8485 15.8638 17.0059 16.1915 17.0059 16.3511C17.0059 16.5771 17.1882 16.7585 17.3695 16.713C17.7043 16.6289 17.6213 16.1155 17.1461 15.331C16.8718 14.8782 16.8332 14.7769 16.8332 14.5099C16.8332 14.0172 17.0227 13.6065 17.4449 13.1844C17.8352 12.794 17.9096 12.5881 17.7005 12.4762C17.5729 12.4079 17.5927 12.4079 17.421 12.4768ZM8.74112 21.8716C8.76363 22.2278 8.81797 22.7253 8.86195 22.9774C8.90587 23.2294 8.93217 23.4454 8.92037 23.4572C8.87415 23.5033 7.83534 23.3458 7.62109 23.2601C7.18015 23.0836 6.88421 22.5623 6.94932 22.0768C7.02069 21.5446 7.51782 21.2438 8.3487 21.2298L8.70025 21.224L8.74112 21.8716Z" fill="#5F6275"/>
<path fill-rule="evenodd" clip-rule="evenodd" d="M14.9624 0.0364905C14.6059 0.184431 14.3493 0.85563 14.2789 1.82478C14.229 2.51072 14.051 4.44511 14.0359 4.46422C14.0272 4.47533 13.8902 4.44137 13.7315 4.38864C13.3427 4.25952 13.1926 4.33142 13.2178 4.63478C13.235 4.84104 13.2463 4.85071 13.6277 4.98455L14.0199 5.12212L13.9886 5.32993C13.9714 5.4442 13.9503 5.73582 13.9418 5.97805C13.9332 6.22022 13.9081 6.4073 13.8859 6.39372C13.8246 6.35625 12.7852 6.55306 12.703 6.6177C12.6043 6.6953 12.6124 6.91848 12.7171 7.00534C12.799 7.07332 13.5194 7.04932 13.7967 6.96931C13.8847 6.94392 13.8971 6.98278 13.8946 7.27515C13.893 7.45929 13.858 8.00587 13.8168 8.48969C13.7454 9.32812 13.7338 9.37947 13.5698 9.58342C13.188 10.0585 12.6445 10.3792 10.9617 11.1225C8.36954 12.2674 7.13922 13.0108 6.06737 14.0796C4.80188 15.3416 3.8569 17.3994 3.49511 19.681C3.33053 20.7191 3.37515 23.2031 3.56787 23.728C3.59475 23.8012 3.51497 23.7518 3.34907 23.5927C2.27889 22.5662 2.01778 19.4228 2.75788 16.4749C3.48337 13.5854 5.35806 10.6351 8.05841 8.1332C9.7493 6.56653 10.2378 5.85377 10.127 5.11476C10.0756 4.77225 10.0222 4.67122 9.73358 4.37143C9.39355 4.01827 9.02917 3.8971 8.30731 3.8971C7.64884 3.8971 7.12477 4.03951 6.47493 4.39503C4.67691 5.37863 3.12946 7.2946 1.80951 10.1716C0.0873616 13.9251 -0.4321 18.0851 0.365511 21.7358C0.513739 22.4141 0.674401 22.8768 0.999237 23.5607C1.53752 24.694 2.32679 25.6485 3.18455 26.2034C3.71259 26.545 3.88638 26.615 4.54082 26.7496C5.71652 26.9916 6.30805 27.0096 12.6598 26.9971C21.9009 26.9789 24.898 26.8929 25.2062 26.6372C25.2485 26.6021 25.2958 26.4772 25.3113 26.3596C25.3685 25.9284 25.2085 24.1741 25.011 23.066C24.98 22.8919 24.7987 21.1822 24.6082 19.2668C24.1039 14.1957 23.8987 11.805 23.771 9.50962C23.6233 6.85544 23.6264 7.05594 23.7328 7.08633C23.9212 7.1401 25.0988 7.2459 25.2952 7.22673C25.4764 7.209 25.4985 7.18793 25.515 7.01622C25.5411 6.7436 25.4595 6.68097 25.0212 6.6375C24.8078 6.61632 24.4066 6.57056 24.1295 6.53573L23.6258 6.47241V5.99935V5.52623L24.7051 5.09685C25.7159 4.69477 25.7856 4.65741 25.803 4.50906C25.8269 4.30523 25.7248 4.18492 25.528 4.18492C25.3634 4.18492 23.979 4.70651 23.7518 4.85405L23.6188 4.94051L23.6655 3.51217C23.7565 0.726226 23.7303 0.414918 23.3903 0.239059C23.1491 0.114317 22.9616 0.137055 22.774 0.31372C22.5662 0.509381 21.6604 1.55567 20.8463 2.54036C20.7325 2.67806 20.6443 2.71709 20.3674 2.75237C19.5332 2.85864 19.1561 2.87326 18.2655 2.834L17.315 2.79204L16.8636 2.03501C15.8415 0.32103 15.3987 -0.144492 14.9624 0.0364905ZM15.3982 0.722542C15.4611 0.781142 15.5831 0.9608 15.6692 1.12181C15.7554 1.28276 15.9424 1.61272 16.0849 1.85495C16.8126 3.09229 16.8877 3.19637 17.1061 3.26844C17.3251 3.34074 20.2358 3.37856 20.5532 3.31322C20.7491 3.27293 21.0701 3.12833 21.2101 3.01734C21.2587 2.97883 21.4252 2.77891 21.5801 2.57312C21.7351 2.36733 21.9026 2.15796 21.9523 2.10788C22.0021 2.0578 22.0998 1.94124 22.1696 1.84884C22.6143 1.25973 22.7623 1.05026 22.7623 1.00996C22.7623 0.984862 22.8409 0.923671 22.9369 0.873993C23.1112 0.783905 23.1117 0.784078 23.1919 0.976112C23.2608 1.14086 23.2607 1.35431 23.1913 2.46087C23.1468 3.17162 23.1097 4.07048 23.1091 4.45835C23.1082 4.89428 23.0855 5.16351 23.0495 5.16351C22.9577 5.16351 22.4503 5.4096 22.4034 5.47689C22.329 5.58385 22.3564 5.78325 22.4505 5.81934C22.5928 5.87397 22.8669 5.86033 22.9063 5.79672C22.9258 5.76506 22.9805 5.73916 23.0277 5.73916C23.0958 5.73916 23.1099 5.80748 23.0962 6.07015L23.0789 6.40115L22.8363 6.38307C22.614 6.36655 22.5904 6.37818 22.5544 6.52151C22.5023 6.72938 22.587 6.84911 22.8358 6.91911C22.9485 6.95083 23.0536 6.98974 23.0693 7.00557C23.0849 7.0214 23.1264 7.669 23.1613 8.44468C23.2171 9.68421 23.3478 11.8332 23.4238 12.762C23.5974 14.8819 23.7808 17.0433 23.8268 17.5111C23.8424 17.6694 23.8684 17.945 23.8846 18.1236C23.9449 18.7911 24.1495 20.8293 24.2622 21.8859C24.3829 23.0172 24.3874 23.0578 24.484 23.8719C24.516 24.141 24.5551 24.4778 24.5708 24.6202C24.6388 25.232 24.6717 25.4681 24.7184 25.6779C24.7664 25.8937 24.7464 26.0547 24.6702 26.0638C24.6498 26.0662 24.5943 26.0762 24.5468 26.0861C24.0827 26.1824 23.0161 26.2681 21.6686 26.3175C20.7954 26.3494 20.7281 26.3449 20.8339 26.2611C21.1181 26.036 21.2239 25.9218 21.5228 25.5176C21.698 25.2807 21.8413 25.0732 21.8413 25.0566C21.8413 25.0399 21.9326 24.8387 22.0441 24.6095C22.1557 24.3803 22.2604 24.1163 22.2769 24.0228C22.3198 23.7793 22.3439 23.7568 22.5616 23.7568C22.8456 23.7568 23.0502 23.6474 23.0502 23.4956C23.0502 23.2217 22.9652 23.211 21.6507 23.3191C19.8033 23.4711 18.9482 23.5173 18.8254 23.4719C18.727 23.4355 18.7252 23.4267 18.81 23.3941C18.8732 23.3698 18.9055 23.291 18.9055 23.1609C18.9055 22.9124 18.7861 22.8735 18.385 22.991C18.0629 23.0855 18.014 23.0723 18.067 22.9055C18.0944 22.8191 18.1833 22.7823 18.4608 22.7428L18.8192 22.6918L18.8099 22.4184C18.803 22.2157 18.8218 22.145 18.8826 22.145C18.9278 22.145 19.0097 22.1221 19.0646 22.0942C19.3492 21.9494 19.6143 21.8516 20.6612 21.5054C21.0412 21.3798 21.4297 21.2424 21.5247 21.2002C21.6197 21.158 21.8269 21.079 21.9852 21.0247C22.1435 20.9704 22.315 20.9042 22.3662 20.8778C22.4174 20.8512 22.5659 20.8009 22.6963 20.7657C22.8266 20.7306 22.9984 20.6445 23.078 20.5744C23.2088 20.4592 23.2155 20.433 23.1474 20.3029C23.0855 20.1845 23.0346 20.1613 22.8597 20.1717C22.6507 20.1842 22.6472 20.1809 22.6468 19.9702C22.646 19.5703 22.5284 19.0088 22.3822 18.7061C22.1112 18.1455 21.5507 17.8397 20.5655 17.7151C19.8098 17.6195 15.3705 17.5783 13.6672 17.651C12.7965 17.6882 11.9805 17.7284 11.8539 17.7403C11.7273 17.7521 11.4294 17.7788 11.1919 17.7995C10.4974 17.8598 10.2105 17.93 9.76686 18.1475C9.4156 18.3198 9.31808 18.4009 9.15374 18.6578C9.04632 18.8258 8.94904 19.0121 8.93764 19.0719C8.91905 19.169 8.84117 19.1842 8.19794 19.2159C7.36539 19.2571 6.8533 19.3817 6.43774 19.6441C5.58596 20.1821 5.23775 20.923 5.23539 22.2025C5.23355 23.1541 5.28093 23.3978 5.57105 23.9295C5.91137 24.5532 6.59593 25.0283 7.42353 25.2153C7.65292 25.2671 8.27704 25.324 8.86264 25.3464L9.89672 25.3861L10.0695 25.5644C10.3177 25.8207 10.5963 26.0188 11.0517 26.2628L11.451 26.4767L8.74544 26.4405C5.26101 26.3939 4.70293 26.3331 3.85247 25.9068C3.33249 25.6461 3.12917 25.4934 2.6724 25.0205C2.25777 24.5912 2.25172 24.584 2.00166 24.2173C1.78764 23.9034 1.29086 22.8847 1.29086 22.7597C1.29086 22.7103 1.26829 22.6559 1.24072 22.6389C1.21315 22.6218 1.17066 22.5232 1.14631 22.4196C1.12202 22.3161 1.0979 22.2184 1.09278 22.2025C1.01996 21.9768 0.887735 21.508 0.865515 21.3966C0.849685 21.3175 0.798395 21.0585 0.751423 20.821C0.385256 18.9679 0.522088 16.2166 1.09272 13.9565C1.10671 13.9011 1.12841 13.8103 1.1409 13.7548C1.15345 13.6992 1.19662 13.5373 1.23698 13.395C1.27727 13.2526 1.3159 13.1103 1.32281 13.0786C1.33409 13.0266 1.61022 12.2107 1.86823 11.4668C2.07114 10.8818 2.76427 9.44112 3.21149 8.67494C3.50685 8.16889 4.04445 7.34393 4.1118 7.29339C4.13287 7.27756 4.17402 7.22075 4.20327 7.1671C4.27039 7.04391 4.82191 6.40777 5.092 6.14211C5.80056 5.44506 6.62425 4.89089 7.36389 4.61366C7.92923 4.40171 8.55375 4.36924 8.97569 4.52985C9.35262 4.67324 9.60723 5.04683 9.55853 5.3849C9.47944 5.93395 8.99952 6.57505 8.08615 7.35171C7.54533 7.81153 6.3058 9.04697 5.94994 9.48084C5.78116 9.68663 5.62873 9.86796 5.61123 9.88379C5.49564 9.98827 4.16907 11.8104 4.16907 11.8646C4.16907 11.8769 4.06546 12.0515 3.93887 12.2526C3.81223 12.4536 3.51221 13.0196 3.27211 13.5103C3.03201 14.0011 2.81176 14.4475 2.78275 14.5025C2.75374 14.5575 2.72997 14.6313 2.72997 14.6665C2.72997 14.7017 2.69422 14.8122 2.65047 14.912C2.42067 15.4364 2.107 16.5975 1.98313 17.382C1.94934 17.596 1.90852 17.855 1.89235 17.9576C1.87623 18.0603 1.84825 18.7789 1.83018 19.5546C1.79305 21.151 1.8532 21.7139 2.15916 22.6318C2.44249 23.482 2.79703 23.9731 3.33439 24.2597C3.67834 24.4431 3.91424 24.4548 4.08474 24.2967C4.25951 24.1348 4.26123 24.0247 4.09758 23.4726C3.97865 23.0714 3.96863 22.9242 3.9703 21.5981C3.9722 20.0947 4.02096 19.6442 4.29117 18.6336C4.3546 18.3961 4.4322 18.0993 4.46351 17.974C4.49483 17.8487 4.56057 17.6544 4.60967 17.5423C4.65872 17.4301 4.71858 17.2866 4.7427 17.2232C4.80217 17.0669 5.36302 15.9276 5.45115 15.7841C5.77604 15.2551 6.11279 14.8382 6.60203 14.3594C6.91748 14.0507 7.19661 13.7982 7.2224 13.7982C7.24825 13.7982 7.30356 13.7641 7.34541 13.7226C7.43354 13.635 8.24342 13.0862 8.37127 13.0274C8.41876 13.0056 8.58713 12.9105 8.74544 12.8163C8.90374 12.722 9.30525 12.5138 9.63768 12.3536C10.4145 11.9792 10.5878 11.9001 11.3934 11.5523C12.3848 11.1244 12.662 10.9844 13.1882 10.6455C13.681 10.3282 14.0905 9.92068 14.2182 9.62026C14.2598 9.5228 14.3087 9.1731 14.327 8.84314C14.3453 8.51318 14.3734 8.11368 14.3893 7.95538C14.4053 7.79708 14.4205 7.49354 14.4232 7.2809C14.4285 6.85815 14.4197 6.86799 14.8473 6.8064C15.0515 6.77698 15.2212 6.74878 15.5871 6.68356C15.7595 6.65282 15.845 6.54995 15.8116 6.41341C15.7616 6.20905 15.675 6.13612 15.5149 6.16369C14.6931 6.30519 14.524 6.32729 14.4937 6.29701C14.4745 6.27778 14.4814 6.04258 14.5091 5.77433L14.5594 5.28659L14.8473 5.38905C15.0056 5.44541 15.2567 5.54724 15.4053 5.61533C15.7489 5.77272 15.8312 5.77087 15.941 5.60336C16.0997 5.36107 16.0369 5.30696 15.1708 4.94039C14.9372 4.8415 14.7071 4.76056 14.6596 4.76056C14.5863 4.76056 14.5788 4.67986 14.6104 4.22809C14.6309 3.93521 14.6587 3.60496 14.6721 3.49415C14.6856 3.38334 14.7246 3.00773 14.7588 2.65947C14.9487 0.730946 15.0566 0.404211 15.3982 0.722542ZM21.565 4.65695C21.3593 4.86268 21.607 5.17877 21.8773 5.05552C22.1199 4.94506 22.0264 4.58787 21.755 4.58787C21.6885 4.58787 21.603 4.61895 21.565 4.65695ZM17.24 4.81099C17.1562 4.96756 17.1627 5.04073 17.2701 5.14814C17.3398 5.2178 17.3982 5.22683 17.5148 5.18579C17.6409 5.14147 17.6679 5.09662 17.6679 4.93187C17.6679 4.74905 17.6521 4.73023 17.4846 4.71405C17.3489 4.70087 17.2854 4.72602 17.24 4.81099ZM19.0247 5.2711C18.9216 5.46371 18.9537 5.60952 19.1779 5.96826C19.5221 6.51892 19.7768 6.54419 20.2341 6.07291C20.5013 5.79764 20.582 5.63473 20.5368 5.46204C20.4872 5.27242 20.2192 5.18614 19.6308 5.17048C19.1371 5.1573 19.0806 5.16668 19.0247 5.2711ZM15.7971 11.7663C15.349 11.9178 14.7838 12.3972 14.5396 12.8327C14.1899 13.4565 14.121 14.2412 14.3684 14.7816C14.4478 14.9551 14.6043 15.2257 14.7163 15.383C15.0119 15.7984 15.1612 16.1209 15.2017 16.4316C15.2443 16.7587 15.3058 16.8491 15.4855 16.8491C15.6655 16.8491 15.7515 16.6715 15.7161 16.3729C15.6708 15.9892 15.548 15.7037 15.1971 15.1653C14.811 14.573 14.6763 14.1787 14.7325 13.8047C14.8181 13.2335 15.2945 12.6012 15.8591 12.3094C16.2038 12.1313 16.3197 11.9143 16.1509 11.7633C16.0674 11.6887 16.0252 11.6891 15.7971 11.7663ZM13.3071 12.4621C12.8403 12.7988 12.5154 13.5275 12.5166 14.235C12.5177 14.8979 12.6692 15.2962 13.1032 15.7776C13.2181 15.9051 13.3794 16.3512 13.3794 16.5416C13.3794 16.6352 13.4219 16.6848 13.524 16.7105C13.7425 16.7653 13.8399 16.6473 13.8399 16.3277C13.8399 15.9665 13.7764 15.8112 13.4425 15.3556C13.1102 14.9024 13.034 14.6953 13.034 14.2465C13.034 13.7255 13.1798 13.3597 13.5271 13.0097C13.8583 12.6758 13.9295 12.5144 13.8019 12.3868C13.68 12.2649 13.5539 12.2841 13.3071 12.4621ZM17.2339 12.6112C16.9682 12.7918 16.5643 13.3743 16.4199 13.7851C16.3314 14.0368 16.309 14.2223 16.3242 14.5791C16.3419 14.9961 16.3657 15.0802 16.5535 15.3856C16.9205 15.9826 17.0039 16.1543 17.0418 16.3914C17.0841 16.6555 17.2298 16.7722 17.4021 16.68C17.4617 16.6481 17.526 16.5815 17.5449 16.5321C17.6087 16.3659 17.4579 15.8443 17.2567 15.5356C16.8611 14.9287 16.8166 14.8212 16.8189 14.4786C16.822 14.0119 17.0408 13.5649 17.4692 13.1496C17.8098 12.8195 17.8748 12.6754 17.7427 12.5433C17.6361 12.4366 17.4553 12.4608 17.2339 12.6112ZM14.4307 18.156C14.3599 18.1696 14.2304 18.17 14.1429 18.1568C14.0554 18.1436 14.1133 18.1324 14.2716 18.1319C14.4299 18.1315 14.5015 18.1424 14.4307 18.156ZM18.114 18.1576C17.9795 18.1698 17.7593 18.1698 17.6247 18.1576C17.4902 18.1455 17.6003 18.1356 17.8694 18.1356C18.1385 18.1356 18.2486 18.1455 18.114 18.1576ZM12.9908 18.2112C12.9513 18.2272 12.8865 18.2272 12.8469 18.2112C12.8073 18.1952 12.8397 18.1821 12.9188 18.1821C12.998 18.1821 13.0304 18.1952 12.9908 18.2112ZM20.2715 18.2078C20.2524 18.2269 20.2027 18.229 20.1612 18.2124C20.1152 18.194 20.1289 18.1804 20.196 18.1776C20.2566 18.1751 20.2906 18.1887 20.2715 18.2078ZM12.1284 18.2684C12.0895 18.2841 12.0118 18.2851 11.9557 18.2705C11.8997 18.2559 11.9316 18.243 12.0266 18.2418C12.1216 18.2407 12.1674 18.2526 12.1284 18.2684ZM11.2914 18.3229C11.2723 18.3421 11.2227 18.3441 11.1812 18.3275C11.1352 18.3091 11.1489 18.2955 11.2159 18.2927C11.2766 18.2902 11.3106 18.3038 11.2914 18.3229ZM13.9669 18.6763C13.736 18.6873 13.3733 18.6872 13.161 18.6762C12.9487 18.6652 13.1376 18.6562 13.5808 18.6563C14.0241 18.6564 14.1978 18.6654 13.9669 18.6763ZM18.4892 18.6747C18.4027 18.6878 18.2473 18.6881 18.1438 18.6753C18.0404 18.6625 18.1111 18.6517 18.3011 18.6514C18.4911 18.6511 18.5758 18.6615 18.4892 18.6747ZM20.3303 18.7308C20.2749 18.7453 20.1842 18.7453 20.1288 18.7308C20.0734 18.7163 20.1187 18.7045 20.2295 18.7045C20.3403 18.7045 20.3856 18.7163 20.3303 18.7308ZM10.5587 19.1158C10.5587 19.1277 10.5134 19.1731 10.458 19.2166C10.3667 19.2881 10.3647 19.2861 10.4362 19.1948C10.5115 19.0989 10.5587 19.0685 10.5587 19.1158ZM8.70295 19.7093C8.64792 19.7237 8.54431 19.7242 8.4727 19.7104C8.40109 19.6967 8.4461 19.6849 8.57274 19.6842C8.69938 19.6836 8.75798 19.6949 8.70295 19.7093ZM8.75476 20.0871C8.73882 20.1267 8.72575 20.0943 8.72575 20.0151C8.72575 19.936 8.73882 19.9036 8.75476 19.9431C8.77076 19.9828 8.77076 20.0475 8.75476 20.0871ZM21.4959 20.035C21.4959 20.0459 21.4376 20.1042 21.3664 20.1645L21.2369 20.2741L21.3466 20.1446C21.4496 20.0229 21.4959 19.9889 21.4959 20.035ZM9.27405 20.1986C9.25569 20.2445 9.24204 20.2309 9.23928 20.1638C9.2368 20.1031 9.25039 20.0692 9.2695 20.0883C9.28861 20.1074 9.29069 20.1571 9.27405 20.1986ZM10.5587 20.2166C10.6331 20.2957 10.681 20.3605 10.6651 20.3605C10.6493 20.3605 10.5755 20.2957 10.5011 20.2166C10.4268 20.1374 10.3789 20.0727 10.3947 20.0727C10.4105 20.0727 10.4843 20.1374 10.5587 20.2166ZM22.1109 20.3713C22.0925 20.4172 22.0789 20.4035 22.0761 20.3365C22.0736 20.2758 22.0872 20.2418 22.1063 20.261C22.1255 20.2801 22.1275 20.3297 22.1109 20.3713ZM11.9247 20.6831C11.9055 20.7022 11.8559 20.7043 11.8144 20.6876C11.7684 20.6693 11.7821 20.6556 11.8491 20.6529C11.9098 20.6504 11.9438 20.664 11.9247 20.6831ZM13.4225 20.7471C13.3355 20.7603 13.193 20.7603 13.1059 20.7471C13.0189 20.7339 13.0901 20.7231 13.2642 20.7231C13.4384 20.7231 13.5096 20.7339 13.4225 20.7471ZM19.0351 20.744C18.9955 20.76 18.9307 20.76 18.8911 20.744C18.8516 20.728 18.8839 20.715 18.9631 20.715C19.0423 20.715 19.0747 20.728 19.0351 20.744ZM14.8048 20.803C14.7497 20.8174 14.6461 20.8179 14.5745 20.8041C14.5029 20.7904 14.5479 20.7786 14.6746 20.7779C14.8012 20.7773 14.8598 20.7886 14.8048 20.803ZM17.9132 20.803C17.8582 20.8174 17.7546 20.8179 17.683 20.8041C17.6114 20.7904 17.6564 20.7786 17.783 20.7779C17.9097 20.7773 17.9683 20.7886 17.9132 20.803ZM8.74169 21.7276C8.79316 22.3986 8.8342 22.8144 8.86425 22.9683C8.87778 23.0379 8.90552 23.1826 8.92584 23.29L8.9628 23.4852L8.49025 23.444C7.37402 23.3466 6.93366 22.9908 6.93251 22.1853C6.93164 21.6063 7.46083 21.2335 8.29252 21.2271L8.70301 21.224L8.74169 21.7276ZM9.27439 21.7276C9.25994 21.783 9.24809 21.7377 9.24809 21.6269C9.24809 21.5161 9.25994 21.4708 9.27439 21.5262C9.2889 21.5815 9.2889 21.6723 9.27439 21.7276ZM17.9845 22.0486C17.9845 22.0589 17.9133 22.1301 17.8262 22.2069L17.6679 22.3465L17.8074 22.1882C17.9379 22.0402 17.9845 22.0034 17.9845 22.0486ZM17.2206 22.3524C17.2015 22.3716 17.1518 22.3736 17.1103 22.357C17.0643 22.3386 17.078 22.325 17.145 22.3222C17.2057 22.3197 17.2397 22.3333 17.2206 22.3524ZM16.8713 22.6775C16.8554 22.7171 16.8423 22.6846 16.8423 22.6055C16.8423 22.5263 16.8554 22.494 16.8713 22.5335C16.8873 22.5731 16.8873 22.6379 16.8713 22.6775ZM17.3376 22.8753C17.2826 22.8897 17.179 22.8902 17.1073 22.8764C17.0357 22.8627 17.0807 22.8509 17.2074 22.8503C17.334 22.8496 17.3926 22.8609 17.3376 22.8753ZM17.5633 23.192C17.5449 23.2378 17.5313 23.2242 17.5285 23.1571C17.5261 23.0965 17.5396 23.0625 17.5588 23.0816C17.5779 23.1007 17.5799 23.1504 17.5633 23.192ZM21.7546 23.8713C21.7747 23.9039 21.7516 23.9135 21.7004 23.8939C21.6007 23.8556 21.5824 23.8143 21.6652 23.8143C21.695 23.8143 21.7352 23.84 21.7546 23.8713ZM21.0198 23.9067C21.0007 23.9258 20.951 23.9279 20.9095 23.9112C20.8636 23.8929 20.8772 23.8792 20.9443 23.8765C21.005 23.874 21.0389 23.8876 21.0198 23.9067ZM8.4708 23.9642C8.45168 23.9834 8.40201 23.9854 8.3605 23.9688C8.31457 23.9504 8.32821 23.9368 8.39527 23.934C8.45594 23.9315 8.48991 23.9451 8.4708 23.9642ZM20.2139 23.9642C20.1948 23.9834 20.1451 23.9854 20.1036 23.9688C20.0577 23.9504 20.0713 23.9368 20.1384 23.934C20.1991 23.9315 20.233 23.9451 20.2139 23.9642ZM6.41408 24.131C6.48845 24.2101 6.53635 24.2749 6.52052 24.2749C6.50469 24.2749 6.43089 24.2101 6.35652 24.131C6.28214 24.0518 6.23425 23.987 6.25008 23.987C6.26591 23.987 6.33971 24.0518 6.41408 24.131ZM19.2077 24.0287C19.1048 24.0414 18.9365 24.0414 18.8336 24.0287C18.7307 24.0159 18.8149 24.0055 19.0207 24.0055C19.2265 24.0055 19.3107 24.0159 19.2077 24.0287ZM9.22034 24.8352C9.06993 24.8471 8.8239 24.8471 8.67348 24.8352C8.52306 24.8234 8.64614 24.8137 8.94691 24.8137C9.24768 24.8137 9.37076 24.8234 9.22034 24.8352ZM10.4724 25.1959C10.5296 25.2592 10.5636 25.311 10.5478 25.311C10.5319 25.311 10.4721 25.2592 10.4148 25.1959C10.3575 25.1326 10.3236 25.0808 10.3394 25.0808C10.3552 25.0808 10.4151 25.1326 10.4724 25.1959ZM21.0354 25.3328C21.0354 25.3447 20.9901 25.3901 20.9347 25.4335C20.8434 25.5051 20.8414 25.5031 20.9129 25.4118C20.9882 25.3159 21.0354 25.2854 21.0354 25.3328ZM14.0856 26.4425C14.0466 26.4583 13.9689 26.4593 13.9129 26.4446C13.8569 26.43 13.8888 26.4171 13.9838 26.416C14.0788 26.4148 14.1246 26.4267 14.0856 26.4425ZM15.985 26.4453C15.9141 26.4589 15.7846 26.4593 15.6971 26.4461C15.6096 26.4328 15.6675 26.4217 15.8258 26.4212C15.9841 26.4208 16.0558 26.4316 15.985 26.4453Z" fill="black"/>
<path fill-rule="evenodd" clip-rule="evenodd" d="M13.0841 12.6325C13.0126 12.7238 13.0146 12.7258 13.1059 12.6542C13.1613 12.6108 13.2066 12.5654 13.2066 12.5535C13.2066 12.5061 13.1594 12.5366 13.0841 12.6325ZM17.0292 12.7764L16.9195 12.9059L17.049 12.7963C17.1707 12.6932 17.2048 12.6469 17.1587 12.6469C17.1478 12.6469 17.0895 12.7051 17.0292 12.7764ZM14.0413 18.1517C12.7929 18.2003 10.8463 18.3566 10.5063 18.4355C9.49096 18.6709 9.26266 19.1382 9.27015 20.9649C9.2793 23.1938 9.63631 24.4052 10.5317 25.2455C11.1191 25.7969 11.8399 26.1112 13.0052 26.3245C13.5137 26.4175 13.8657 26.4282 16.0273 26.416C19.7101 26.3952 20.1898 26.2943 20.9487 25.38C21.2549 25.0111 21.7261 24.1528 21.7261 23.9639C21.7261 23.849 21.7051 23.8489 20.1937 23.9613C18.8587 24.0605 18.4918 24.0397 18.075 23.8413C17.8124 23.7163 17.7765 23.7124 17.593 23.7891C17.2182 23.9457 16.9759 23.8549 17.0158 23.5729C17.0288 23.4816 17.1109 23.4047 17.2793 23.3266C17.4914 23.2281 17.5239 23.1887 17.5239 23.0314C17.5239 22.8515 17.5218 22.8502 17.2753 22.8779C17.0915 22.8987 17.0015 22.8808 16.9299 22.8092C16.6864 22.5656 16.9154 22.3177 17.384 22.3177C17.6051 22.3177 17.7047 22.2891 17.7824 22.2032C18.0769 21.8778 18.5914 21.6509 20.7188 20.908C22.1365 20.4129 22.055 20.452 22.1003 20.2456C22.1552 19.9955 22.0794 19.4107 21.9453 19.0506C21.7596 18.5517 21.3833 18.3501 20.4309 18.2397C19.9171 18.1801 15.0358 18.1129 14.0413 18.1517ZM9.28488 18.4465C9.21333 18.5378 9.21535 18.5398 9.30664 18.4682C9.36202 18.4248 9.40738 18.3794 9.40738 18.3675C9.40738 18.3201 9.36012 18.3506 9.28488 18.4465ZM19.4916 18.6886C20.6595 18.7325 20.8924 18.7565 21.1163 18.8555C21.7908 19.1539 21.7777 19.9917 21.0929 20.3398C20.5118 20.6352 19.55 20.7504 17.2361 20.8014C15.531 20.8391 12.3143 20.7484 11.5336 20.6407C10.574 20.5083 10.0482 19.9219 10.3558 19.327C10.5363 18.978 11.1158 18.7819 12.2173 18.6971C13.0662 18.6318 17.8328 18.6262 19.4916 18.6886ZM7.60383 19.7875C6.37368 19.994 5.72678 20.8557 5.72413 22.2912C5.72263 23.0912 5.91835 23.6193 6.39942 24.1134C6.86436 24.591 7.54782 24.7904 8.72582 24.792L9.45453 24.7929L9.32351 24.5195C9.25144 24.3692 9.17557 24.1917 9.1549 24.1253C9.12088 24.0159 9.05992 24.0009 8.51755 23.9677C7.82753 23.9255 7.26858 23.7651 6.9788 23.5263C6.67555 23.2764 6.45968 22.8274 6.42808 22.381C6.3921 21.8727 6.48691 21.555 6.76437 21.2541C7.09307 20.8975 7.47017 20.7522 8.15536 20.7183L8.71661 20.6905L8.71742 20.3384C8.71782 20.1447 8.73382 19.9281 8.75288 19.8568C8.78684 19.7301 8.77763 19.7275 8.33479 19.7341C8.0857 19.7378 7.75678 19.7618 7.60383 19.7875Z" fill="#F98F7F"/>
<path fill-rule="evenodd" clip-rule="evenodd" d="M13.0842 12.6325C13.0126 12.7238 13.0147 12.7258 13.106 12.6542C13.1613 12.6108 13.2067 12.5654 13.2067 12.5535C13.2067 12.5061 13.1594 12.5366 13.0842 12.6325ZM17.0292 12.7764L16.9196 12.9059L17.0491 12.7963C17.1708 12.6932 17.2048 12.6469 17.1588 12.6469C17.1478 12.6469 17.0896 12.7051 17.0292 12.7764ZM15.2358 18.1585C15.6395 18.1684 16.3 18.1684 16.7037 18.1585C17.1074 18.1486 16.7771 18.1405 15.9698 18.1405C15.1624 18.1405 14.8321 18.1486 15.2358 18.1585ZM13.1635 18.2143C13.2506 18.2275 13.3931 18.2275 13.4801 18.2143C13.5672 18.2011 13.4959 18.1903 13.3218 18.1903C13.1477 18.1903 13.0765 18.2011 13.1635 18.2143ZM19.7267 18.2144C19.8141 18.2276 19.9437 18.2272 20.0145 18.2136C20.0853 18.1999 20.0137 18.1891 19.8554 18.1895C19.6971 18.19 19.6392 18.2011 19.7267 18.2144ZM12.272 18.2713C12.3436 18.2851 12.4472 18.2846 12.5022 18.2702C12.5572 18.2558 12.4986 18.2445 12.372 18.2451C12.2454 18.2458 12.2003 18.2576 12.272 18.2713ZM20.4454 18.2687C20.485 18.2847 20.5498 18.2847 20.5893 18.2687C20.6289 18.2528 20.5965 18.2397 20.5174 18.2397C20.4382 18.2397 20.4059 18.2528 20.4454 18.2687ZM11.379 18.3278C11.4344 18.3423 11.5251 18.3423 11.5805 18.3278C11.6359 18.3134 11.5906 18.3015 11.4798 18.3015C11.3689 18.3015 11.3236 18.3134 11.379 18.3278ZM20.852 18.3275C20.8935 18.3441 20.9432 18.3421 20.9623 18.323C20.9814 18.3038 20.9474 18.2903 20.8867 18.2927C20.8197 18.2955 20.806 18.3091 20.852 18.3275ZM9.28495 18.4465C9.21339 18.5378 9.21541 18.5398 9.30671 18.4682C9.36208 18.4248 9.40744 18.3794 9.40744 18.3675C9.40744 18.3201 9.36018 18.3506 9.28495 18.4465ZM10.8322 18.3839C10.8718 18.3999 10.9365 18.3999 10.9761 18.3839C11.0157 18.3679 10.9833 18.3548 10.9041 18.3548C10.825 18.3548 10.7926 18.3679 10.8322 18.3839ZM21.3808 18.4835C21.3808 18.4959 21.421 18.5215 21.4702 18.5404C21.5214 18.5601 21.5445 18.5504 21.5243 18.5178C21.4905 18.4631 21.3808 18.4369 21.3808 18.4835ZM15.5812 18.6189C15.8583 18.6294 16.3116 18.6294 16.5886 18.6189C16.8656 18.6083 16.639 18.5997 16.0849 18.5997C15.5308 18.5997 15.3042 18.6083 15.5812 18.6189ZM21.6974 18.6911C21.7547 18.7545 21.8146 18.8063 21.8304 18.8063C21.8462 18.8063 21.8123 18.7545 21.755 18.6911C21.6977 18.6278 21.6378 18.576 21.622 18.576C21.6062 18.576 21.6401 18.6278 21.6974 18.6911ZM12.3576 18.6748C12.4447 18.688 12.5872 18.688 12.6742 18.6748C12.7613 18.6616 12.69 18.6508 12.5159 18.6508C12.3418 18.6508 12.2706 18.6616 12.3576 18.6748ZM18.8624 18.6759C19.0127 18.6877 19.2589 18.6877 19.4092 18.6759C19.5596 18.664 19.4366 18.6543 19.1358 18.6543C18.835 18.6543 18.712 18.664 18.8624 18.6759ZM9.69089 18.8494L9.55135 19.0077L9.70966 18.8682C9.79669 18.7914 9.86796 18.7202 9.86796 18.7099C9.86796 18.6647 9.82133 18.7015 9.69089 18.8494ZM11.7532 18.7292C11.7928 18.7452 11.8576 18.7452 11.8971 18.7292C11.9367 18.7133 11.9043 18.7002 11.8251 18.7002C11.746 18.7002 11.7136 18.7133 11.7532 18.7292ZM20.5037 18.7318C20.5753 18.7456 20.6789 18.7451 20.7339 18.7307C20.7889 18.7163 20.7303 18.705 20.6037 18.7056C20.4771 18.7063 20.432 18.7181 20.5037 18.7318ZM11.3539 18.788C11.3954 18.8046 11.445 18.8026 11.4642 18.7835C11.4833 18.7644 11.4493 18.7508 11.3886 18.7532C11.3216 18.756 11.3079 18.7697 11.3539 18.788ZM9.49143 19.0979C9.47053 19.1317 9.46581 19.1717 9.4809 19.1868C9.49598 19.2018 9.52367 19.1742 9.54243 19.1253C9.58135 19.0239 9.54819 19.0061 9.49143 19.0979ZM21.5284 19.2261C21.5501 19.2828 21.5822 19.3148 21.6 19.2971C21.6177 19.2794 21.6 19.2329 21.5607 19.1938C21.5038 19.1374 21.4972 19.144 21.5284 19.2261ZM10.2973 19.3282C10.2764 19.3619 10.2717 19.4019 10.2868 19.417C10.3019 19.4321 10.3296 19.4045 10.3483 19.3556C10.3872 19.2542 10.3541 19.2363 10.2973 19.3282ZM22.0186 19.4155C22.0213 19.4825 22.035 19.4962 22.0533 19.4503C22.07 19.4087 22.0679 19.3591 22.0488 19.3399C22.0297 19.3208 22.0161 19.3548 22.0186 19.4155ZM21.6244 19.5546C21.6244 19.6654 21.6363 19.7107 21.6507 19.6553C21.6652 19.6 21.6652 19.5092 21.6507 19.4539C21.6363 19.3985 21.6244 19.4438 21.6244 19.5546ZM10.2246 19.6409C10.2257 19.7359 10.2386 19.7678 10.2532 19.7118C10.2679 19.6558 10.2669 19.5781 10.2511 19.5391C10.2353 19.5001 10.2234 19.546 10.2246 19.6409ZM7.92626 19.7672C7.98227 19.7818 8.05998 19.7808 8.09895 19.7651C8.13792 19.7493 8.0921 19.7374 7.99712 19.7385C7.90214 19.7397 7.87025 19.7526 7.92626 19.7672ZM8.72122 19.8184C8.72398 19.8855 8.73763 19.8991 8.75599 19.8532C8.77262 19.8117 8.77055 19.762 8.75144 19.7429C8.73233 19.7238 8.71874 19.7577 8.72122 19.8184ZM9.29686 19.8184C9.29963 19.8855 9.31327 19.8991 9.33163 19.8532C9.34827 19.8117 9.3462 19.762 9.32708 19.7429C9.30797 19.7238 9.29439 19.7577 9.29686 19.8184ZM22.0881 19.9863C22.0885 20.1446 22.0997 20.2025 22.1129 20.115C22.1261 20.0275 22.1258 19.898 22.1121 19.8272C22.0985 19.7564 22.0877 19.828 22.0881 19.9863ZM7.49706 19.8242C7.53856 19.8408 7.58824 19.8387 7.60735 19.8196C7.62646 19.8005 7.5925 19.7869 7.53182 19.7894C7.46476 19.7922 7.45112 19.8058 7.49706 19.8242ZM6.73111 20.072C6.71096 20.1046 6.73404 20.1143 6.78527 20.0947C6.88498 20.0564 6.90322 20.0151 6.82045 20.0151C6.79063 20.0151 6.75045 20.0407 6.73111 20.072ZM6.38261 20.3749L6.15506 20.6195L6.39971 20.392C6.6272 20.1804 6.67084 20.1302 6.62726 20.1302C6.61788 20.1302 6.50776 20.2404 6.38261 20.3749ZM9.25628 20.8498C9.25639 21.1981 9.26589 21.3331 9.27735 21.1499C9.2888 20.9667 9.28869 20.6818 9.27712 20.5167C9.26555 20.3516 9.25616 20.5015 9.25628 20.8498ZM20.9203 20.4181C20.8728 20.4487 20.8599 20.4738 20.8915 20.4738C20.9232 20.4738 20.9879 20.4487 21.0354 20.4181C21.0829 20.3874 21.0959 20.3623 21.0642 20.3623C21.0326 20.3623 20.9678 20.3874 20.9203 20.4181ZM11.2387 20.6301C11.2802 20.6467 11.3299 20.6446 11.349 20.6255C11.3681 20.6064 11.3342 20.5928 11.2735 20.5953C11.2064 20.5981 11.1928 20.6117 11.2387 20.6301ZM20.2188 20.6301C20.2603 20.6467 20.31 20.6446 20.3291 20.6255C20.3482 20.6064 20.3142 20.5928 20.2535 20.5953C20.1865 20.5981 20.1728 20.6117 20.2188 20.6301ZM8.12537 20.6899C8.22755 20.7026 8.40887 20.7028 8.52832 20.6903C8.64771 20.6779 8.56413 20.6675 8.3425 20.6672C8.12088 20.667 8.02314 20.6772 8.12537 20.6899ZM11.5805 20.6864C11.6201 20.7024 11.6849 20.7024 11.7244 20.6864C11.764 20.6705 11.7316 20.6574 11.6525 20.6574C11.5733 20.6574 11.5409 20.6705 11.5805 20.6864ZM19.7845 20.6882C19.8405 20.7028 19.9182 20.7019 19.9572 20.6861C19.9962 20.6703 19.9503 20.6584 19.8554 20.6595C19.7604 20.6607 19.7285 20.6736 19.7845 20.6882ZM7.66975 20.7452C7.71125 20.7618 7.76093 20.7598 7.78004 20.7407C7.79915 20.7215 7.76519 20.708 7.70452 20.7104C7.63746 20.7132 7.62381 20.7268 7.66975 20.7452ZM12.3303 20.7481C12.4657 20.7603 12.673 20.7601 12.7908 20.7477C12.9087 20.7354 12.798 20.7254 12.5447 20.7256C12.2914 20.7258 12.1949 20.7359 12.3303 20.7481ZM19.1502 20.7455C19.2056 20.7601 19.2963 20.7601 19.3517 20.7455C19.4071 20.7311 19.3618 20.7192 19.2509 20.7192C19.1401 20.7192 19.0948 20.7311 19.1502 20.7455ZM13.9992 20.8052C14.1027 20.818 14.2581 20.8177 14.3446 20.8046C14.4311 20.7914 14.3465 20.7809 14.1565 20.7813C13.9665 20.7816 13.8958 20.7923 13.9992 20.8052ZM18.1439 20.8052C18.2473 20.818 18.4027 20.8177 18.4893 20.8046C18.5758 20.7914 18.4911 20.7809 18.3011 20.7813C18.1112 20.7816 18.0404 20.7923 18.1439 20.8052ZM15.8715 20.8637C16.0865 20.8748 16.4232 20.8748 16.6198 20.8636C16.8163 20.8524 16.6404 20.8433 16.2288 20.8434C15.8172 20.8435 15.6564 20.8527 15.8715 20.8637ZM6.75511 21.2096L6.61557 21.3679L6.77388 21.2283C6.86091 21.1515 6.93218 21.0803 6.93218 21.07C6.93218 21.0248 6.88555 21.0616 6.75511 21.2096ZM5.73455 21.886C5.7357 21.9809 5.7486 22.0128 5.76322 21.9568C5.77784 21.9008 5.77686 21.8231 5.76109 21.7841C5.74532 21.7452 5.7334 21.791 5.73455 21.886ZM6.373 22.2313C6.37346 22.3896 6.38463 22.4476 6.39787 22.3601C6.41105 22.2726 6.4107 22.143 6.39706 22.0722C6.38342 22.0014 6.3726 22.073 6.373 22.2313ZM9.30354 22.1738C9.30469 22.2688 9.31759 22.3006 9.33221 22.2446C9.34683 22.1886 9.34585 22.1109 9.33008 22.0719C9.3143 22.033 9.30239 22.0788 9.30354 22.1738ZM17.4819 22.3C17.5379 22.3146 17.6157 22.3137 17.6546 22.2979C17.6936 22.2821 17.6478 22.2702 17.5528 22.2713C17.4578 22.2725 17.4259 22.2854 17.4819 22.3ZM16.8834 22.4184C16.8104 22.5116 16.8131 22.5128 16.9196 22.4347C16.9829 22.3883 17.0455 22.343 17.0587 22.334C17.0719 22.325 17.0556 22.3177 17.0226 22.3177C16.9895 22.3177 16.9269 22.363 16.8834 22.4184ZM5.73242 22.7206C5.73242 22.7998 5.74549 22.8322 5.76143 22.7926C5.77744 22.753 5.77744 22.6883 5.76143 22.6487C5.74549 22.6091 5.73242 22.6415 5.73242 22.7206ZM9.35443 22.6966C9.35719 22.7637 9.37083 22.7773 9.3892 22.7315C9.40583 22.6899 9.40376 22.6402 9.38465 22.6211C9.36554 22.602 9.35195 22.636 9.35443 22.6966ZM5.78544 23.042C5.7882 23.1091 5.80185 23.1227 5.82021 23.0768C5.83684 23.0353 5.83477 22.9856 5.81566 22.9665C5.79655 22.9474 5.78296 22.9813 5.78544 23.042ZM9.41199 23.042C9.41475 23.1091 9.4284 23.1227 9.44676 23.0768C9.4634 23.0353 9.46132 22.9856 9.44221 22.9665C9.4231 22.9474 9.40952 22.9813 9.41199 23.042ZM9.46956 23.3298C9.47232 23.3969 9.48596 23.4105 9.50432 23.3647C9.52096 23.3231 9.51889 23.2734 9.49978 23.2543C9.48067 23.2352 9.46708 23.2692 9.46956 23.3298ZM5.89602 23.408C5.89602 23.4378 5.92164 23.478 5.95295 23.4973C5.98553 23.5175 5.9952 23.4944 5.97557 23.4432C5.93729 23.3435 5.89602 23.3252 5.89602 23.408ZM6.01115 23.6383C6.01115 23.6681 6.03677 23.7083 6.06808 23.7276C6.10066 23.7478 6.11033 23.7247 6.0907 23.6734C6.05242 23.5737 6.01115 23.5555 6.01115 23.6383ZM17.2254 23.9112C17.2669 23.9279 17.3166 23.9258 17.3357 23.9067C17.3548 23.8876 17.3209 23.874 17.2602 23.8765C17.1931 23.8792 17.1795 23.8929 17.2254 23.9112ZM21.1369 23.9126C21.2085 23.9264 21.3121 23.9259 21.3671 23.9115C21.4222 23.8971 21.3636 23.8858 21.2369 23.8864C21.1103 23.8871 21.0653 23.8989 21.1369 23.9126ZM8.09895 23.9694C8.15496 23.984 8.23267 23.983 8.27164 23.9672C8.31061 23.9515 8.26479 23.9396 8.16981 23.9407C8.07483 23.9419 8.04294 23.9548 8.09895 23.9694ZM20.331 23.9702C20.4026 23.9839 20.5062 23.9834 20.5612 23.969C20.6163 23.9546 20.5577 23.9434 20.431 23.944C20.3044 23.9446 20.2594 23.9564 20.331 23.9702ZM8.8181 24.0277C8.88971 24.0415 8.99333 24.041 9.04836 24.0266C9.10339 24.0122 9.04479 24.0009 8.91815 24.0016C8.79151 24.0022 8.74649 24.014 8.8181 24.0277ZM18.5494 24.0264C18.5909 24.043 18.6406 24.0409 18.6597 24.0218C18.6788 24.0027 18.6448 23.9891 18.5842 23.9916C18.5171 23.9944 18.5035 24.008 18.5494 24.0264ZM19.4675 24.0277C19.5391 24.0415 19.6427 24.041 19.6978 24.0266C19.7528 24.0122 19.6942 24.0009 19.5675 24.0016C19.4409 24.0022 19.3959 24.014 19.4675 24.0277ZM6.52923 24.2391C6.52923 24.251 6.57459 24.2963 6.62997 24.3398C6.72126 24.4114 6.72328 24.4093 6.65172 24.318C6.57649 24.2221 6.52923 24.1917 6.52923 24.2391ZM9.23654 24.4188C9.23654 24.4504 9.26163 24.5152 9.29231 24.5627C9.323 24.6102 9.34809 24.6231 9.34809 24.5915C9.34809 24.5598 9.323 24.4951 9.29231 24.4476C9.26163 24.4001 9.23654 24.3871 9.23654 24.4188ZM7.61218 24.7171C7.65369 24.7338 7.70337 24.7317 7.72248 24.7126C7.74159 24.6935 7.70763 24.6799 7.64695 24.6824C7.57989 24.6851 7.56625 24.6988 7.61218 24.7171ZM7.98382 24.7753C8.03983 24.7899 8.11754 24.7889 8.15651 24.7731C8.19549 24.7574 8.14966 24.7455 8.05468 24.7466C7.9597 24.7478 7.92781 24.7607 7.98382 24.7753ZM10.1558 24.8723C10.1558 24.8842 10.2011 24.9296 10.2565 24.973C10.3478 25.0446 10.3498 25.0425 10.2783 24.9513C10.203 24.8554 10.1558 24.8249 10.1558 24.8723ZM21.0281 25.2391C20.9565 25.3304 20.9585 25.3324 21.0498 25.2608C21.1457 25.1856 21.1762 25.1383 21.1288 25.1383C21.1169 25.1383 21.0715 25.1837 21.0281 25.2391ZM10.6163 25.3328C10.6163 25.3447 10.6617 25.3901 10.717 25.4335C10.8083 25.5051 10.8103 25.5031 10.7388 25.4118C10.6636 25.3159 10.6163 25.2854 10.6163 25.3328ZM20.6576 25.6708L20.4886 25.8579L20.6757 25.6888C20.7786 25.5959 20.8627 25.5116 20.8627 25.5017C20.8627 25.4572 20.8153 25.4964 20.6576 25.6708ZM20.0568 26.0594C20.005 26.0929 19.9978 26.1155 20.0391 26.1161C20.0768 26.1165 20.1236 26.091 20.1432 26.0594C20.1873 25.9879 20.1674 25.9879 20.0568 26.0594ZM19.3553 26.2714C19.3968 26.288 19.4465 26.2859 19.4656 26.2668C19.4847 26.2477 19.4507 26.2341 19.3901 26.2366C19.323 26.2394 19.3094 26.253 19.3553 26.2714ZM13.0232 26.3289C13.0647 26.3456 13.1144 26.3435 13.1335 26.3244C13.1526 26.3053 13.1187 26.2917 13.058 26.2942C12.9909 26.2969 12.9773 26.3106 13.0232 26.3289ZM19.0099 26.3289C19.0514 26.3456 19.1011 26.3435 19.1202 26.3244C19.1393 26.3053 19.1054 26.2917 19.0447 26.2942C18.9776 26.2969 18.964 26.3106 19.0099 26.3289ZM13.4524 26.3871C13.5084 26.4017 13.5862 26.4007 13.6251 26.3849C13.6641 26.3692 13.6183 26.3573 13.5233 26.3584C13.4283 26.3596 13.3964 26.3725 13.4524 26.3871ZM18.2292 26.3884C18.3163 26.4016 18.4587 26.4016 18.5458 26.3884C18.6329 26.3752 18.5616 26.3645 18.3875 26.3645C18.2133 26.3645 18.1421 26.3752 18.2292 26.3884ZM14.4899 26.4475C14.7049 26.4586 15.0417 26.4585 15.2382 26.4473C15.4348 26.4361 15.2589 26.427 14.8473 26.4271C14.4357 26.4272 14.2749 26.4364 14.4899 26.4475Z" fill="#C97C74"/>
<path fill-rule="evenodd" clip-rule="evenodd" d="M13.0843 12.6325C13.0127 12.7238 13.0147 12.7258 13.106 12.6542C13.1614 12.6108 13.2068 12.5654 13.2068 12.5535C13.2068 12.5061 13.1595 12.5366 13.0843 12.6325ZM17.0293 12.7764L16.9197 12.9059L17.0492 12.7963C17.1709 12.6932 17.2049 12.6469 17.1589 12.6469C17.1479 12.6469 17.0897 12.7051 17.0293 12.7764ZM15.2359 18.1585C15.6396 18.1684 16.3001 18.1684 16.7038 18.1585C17.1075 18.1486 16.7772 18.1405 15.9699 18.1405C15.1625 18.1405 14.8322 18.1486 15.2359 18.1585ZM13.1071 18.2129C13.1631 18.2276 13.2409 18.2266 13.2798 18.2108C13.3188 18.195 13.273 18.1831 13.178 18.1843C13.083 18.1854 13.0511 18.1983 13.1071 18.2129ZM19.9886 18.2124C20.0301 18.229 20.0798 18.2269 20.0989 18.2078C20.118 18.1887 20.084 18.1751 20.0234 18.1776C19.9563 18.1804 19.9427 18.194 19.9886 18.2124ZM12.2138 18.2687C12.2534 18.2847 12.3182 18.2847 12.3577 18.2687C12.3973 18.2528 12.3649 18.2397 12.2858 18.2397C12.2066 18.2397 12.1743 18.2528 12.2138 18.2687ZM9.28504 18.4465C9.21349 18.5378 9.2155 18.5398 9.3068 18.4682C9.36218 18.4248 9.40754 18.3794 9.40754 18.3675C9.40754 18.3201 9.36028 18.3506 9.28504 18.4465ZM12.5304 18.6732C12.5858 18.6877 12.6765 18.6877 12.7319 18.6732C12.7873 18.6588 12.7419 18.6469 12.6311 18.6469C12.5203 18.6469 12.475 18.6588 12.5304 18.6732ZM18.7473 18.6748C18.8344 18.688 18.9769 18.688 19.0639 18.6748C19.151 18.6616 19.0798 18.6508 18.9056 18.6508C18.7315 18.6508 18.6603 18.6616 18.7473 18.6748ZM20.4754 18.731C20.5314 18.7456 20.6091 18.7447 20.6481 18.7289C20.687 18.7131 20.6412 18.7012 20.5462 18.7024C20.4512 18.7035 20.4194 18.7164 20.4754 18.731ZM22.0881 19.9863C22.0886 20.1446 22.0998 20.2025 22.113 20.115C22.1262 20.0275 22.1259 19.898 22.1122 19.8272C22.0986 19.7564 22.0877 19.828 22.0881 19.9863ZM9.25637 20.8498C9.25649 21.1981 9.26599 21.3331 9.27744 21.1499C9.2889 20.9667 9.28878 20.6818 9.27721 20.5167C9.26564 20.3516 9.25626 20.5015 9.25637 20.8498ZM8.27064 20.6895C8.35768 20.7027 8.50021 20.7027 8.58725 20.6895C8.67428 20.6764 8.60308 20.6656 8.42894 20.6656C8.25481 20.6656 8.1836 20.6764 8.27064 20.6895ZM19.7583 20.6876C19.7999 20.7043 19.8495 20.7022 19.8686 20.6831C19.8878 20.664 19.8538 20.6504 19.7931 20.6529C19.7261 20.6556 19.7124 20.6693 19.7583 20.6876ZM12.5304 20.7471C12.6174 20.7603 12.76 20.7603 12.847 20.7471C12.934 20.7339 12.8628 20.7232 12.6887 20.7232C12.5146 20.7232 12.4434 20.7339 12.5304 20.7471ZM19.1251 20.7452C19.1666 20.7618 19.2163 20.7598 19.2354 20.7407C19.2545 20.7215 19.2206 20.708 19.1599 20.7104C19.0928 20.7132 19.0792 20.7268 19.1251 20.7452ZM14.2584 20.8033C14.3144 20.818 14.3921 20.817 14.4311 20.8012C14.4701 20.7854 14.4243 20.7735 14.3293 20.7747C14.2343 20.7758 14.2024 20.7887 14.2584 20.8033ZM18.0566 20.8031C18.112 20.8176 18.2027 20.8176 18.258 20.8031C18.3134 20.7887 18.2681 20.7768 18.1573 20.7768C18.0465 20.7768 18.0012 20.7887 18.0566 20.8031ZM6.36572 22.2026C6.36572 22.2817 6.37879 22.3141 6.39473 22.2745C6.41074 22.235 6.41074 22.1702 6.39473 22.1306C6.37879 22.0911 6.36572 22.1234 6.36572 22.2026ZM21.0823 23.9112C21.1238 23.9279 21.1735 23.9258 21.1926 23.9067C21.2117 23.8876 21.1778 23.874 21.1171 23.8765C21.05 23.8792 21.0364 23.8929 21.0823 23.9112ZM8.18792 23.9688C8.22942 23.9854 8.2791 23.9834 8.29821 23.9643C8.31733 23.9451 8.28336 23.9316 8.22269 23.934C8.15563 23.9368 8.14198 23.9504 8.18792 23.9688ZM20.2728 23.9676C20.3124 23.9836 20.3772 23.9836 20.4167 23.9676C20.4563 23.9516 20.4239 23.9386 20.3448 23.9386C20.2656 23.9386 20.2333 23.9516 20.2728 23.9676ZM8.99382 24.0264C9.03533 24.043 9.085 24.0409 9.10412 24.0218C9.12323 24.0027 9.08926 23.9891 9.02859 23.9916C8.96153 23.9944 8.94788 24.008 8.99382 24.0264ZM19.4093 24.0252C19.4489 24.0412 19.5137 24.0412 19.5532 24.0252C19.5929 24.0092 19.5604 23.9961 19.4813 23.9961C19.4021 23.9961 19.3698 24.0092 19.4093 24.0252ZM18.4883 26.3853C18.5279 26.4013 18.5927 26.4013 18.6322 26.3853C18.6718 26.3693 18.6394 26.3563 18.5603 26.3563C18.4811 26.3563 18.4488 26.3693 18.4883 26.3853ZM14.49 26.4475C14.705 26.4586 15.0418 26.4585 15.2383 26.4473C15.4349 26.4361 15.2589 26.427 14.8474 26.4271C14.4358 26.4272 14.2749 26.4364 14.49 26.4475Z" fill="#956769"/>
</svg>
